<?xml version="1.0" encoding="UTF-8" standalone="no"?>
<svg
   xmlns:dc="http://purl.org/dc/elements/1.1/"
   xmlns:cc="http://creativecommons.org/ns#"
   xmlns:rdf="http://www.w3.org/1999/02/22-rdf-syntax-ns#"
   xmlns:svg="http://www.w3.org/2000/svg"
   xmlns="http://www.w3.org/2000/svg"
   version="1.1"
   id="svg4136"
   height="299.0816"
   width="1155.8424">
  <metadata
     id="metadata4231">
    <rdf:RDF>
      <cc:Work
         rdf:about="">
        <dc:format>image/svg+xml</dc:format>
        <dc:type
           rdf:resource="http://purl.org/dc/dcmitype/StillImage" />
        <dc:title></dc:title>
      </cc:Work>
    </rdf:RDF>
  </metadata>
  <defs
     id="defs4229" />
  <symbol
     transform="translate(555.48184,308.743)"
     height="100"
     width="100"
     viewBox="0 0 1150 34"
     id="bg-zigzag-fill">
    <path
       style="fill:#ffffff"
       id="path4139"
       d="m 1121.252,0 c -14.375,0 -14.375,14 -28.749,14 -14.374,0 -14.374,-14 -28.748,-14 -14.374,0 -14.374,14 -28.748,14 -14.375,0 -14.375,-14 -28.75,-14 C 991.883,0 991.883,14 977.509,14 963.135,14 963.135,0 948.761,0 934.387,0 934.387,14 920.012,14 905.637,14 905.637,0 891.263,0 876.889,0 876.889,14 862.514,14 848.139,14 848.139,0 833.764,0 819.393,0 819.393,14 805.021,14 790.646,14 790.646,0 776.271,0 761.899,0 761.899,14 747.527,14 733.153,14 733.153,0 718.78,0 704.407,0 704.407,14 690.033,14 675.66,14 675.66,0 661.287,0 646.913,0 646.913,14 632.539,14 618.164,14 618.164,0 603.788,0 589.414,0 589.414,14 575.04,14 560.666,14 560.666,0 546.292,0 531.918,0 531.918,14 517.544,14 503.17,14 503.17,0 488.796,0 474.421,0 474.421,14 460.046,14 445.67,14 445.67,0 431.293,0 416.918,0 416.918,14 402.543,14 388.168,14 388.168,0 373.792,0 359.417,0 359.417,14 345.042,14 330.667,14 330.666,0 316.291,0 301.916,0 301.916,14 287.54,14 273.164,14 273.164,0 258.787,0 244.413,0 244.413,14 230.04,14 215.665,14 215.665,0 201.29,0 186.915,0 186.915,14 172.539,14 158.162,14 158.162,0 143.785,0 129.408,0 129.408,14 115.03,14 100.652,14 100.652,0 86.274,0 71.896,0 71.896,14 57.518,14 43.139,14 43.139,0 28.759,0 14.379,0 14.38,14 0,14 l 0,20 1150,0 0,-20 c -14.374,0 -14.374,-14 -28.748,-14 z" />
  </symbol>
  <symbol
     transform="translate(555.48184,308.743)"
     viewBox="0 0 1150 23"
     id="bg-zigzag-line">
    <path
       style="fill:#e6e7e8"
       id="path4142"
       d="m 1150,23 c -9.017,0 -13.728,-4.589 -17.514,-8.276 C 1129.074,11.401 1126.609,9 1121.252,9 c -5.358,0 -7.823,2.401 -11.235,5.724 -3.786,3.688 -8.497,8.276 -17.514,8.276 -9.017,0 -13.728,-4.589 -17.514,-8.276 C 1071.577,11.401 1069.112,9 1063.755,9 c -5.357,0 -7.822,2.401 -11.234,5.724 -3.786,3.688 -8.497,8.276 -17.514,8.276 -9.017,0 -13.729,-4.589 -17.515,-8.276 C 1014.08,11.401 1011.615,9 1006.257,9 1000.9,9 998.435,11.401 995.023,14.724 991.236,18.411 986.525,23 977.509,23 968.493,23 963.781,18.411 959.995,14.724 956.583,11.401 954.118,9 948.761,9 943.404,9 940.939,11.401 937.527,14.724 933.74,18.411 929.028,23 920.012,23 910.996,23 906.283,18.411 902.497,14.724 899.085,11.401 896.62,9 891.263,9 885.906,9 883.441,11.401 880.029,14.724 876.242,18.411 871.53,23 862.514,23 853.498,23 848.785,18.411 844.999,14.724 841.587,11.401 839.122,9 833.764,9 c -5.355,0 -7.82,2.4 -11.231,5.723 C 818.747,18.411 814.036,23 805.021,23 796.004,23 791.292,18.411 787.506,14.724 784.094,11.401 781.629,9 776.271,9 770.915,9 768.45,11.401 765.039,14.723 761.253,18.411 756.542,23 747.526,23 738.509,23 733.797,18.411 730.012,14.723 726.602,11.401 724.137,9 718.779,9 713.421,9 710.958,11.401 707.546,14.723 703.761,18.411 699.049,23 690.032,23 681.016,23 676.305,18.411 672.52,14.724 669.109,11.401 666.645,9 661.287,9 655.929,9 653.465,11.401 650.053,14.724 646.267,18.411 641.556,23 632.539,23 623.522,23 618.81,18.411 615.024,14.724 611.612,11.401 609.147,9 603.788,9 598.431,9 595.966,11.401 592.554,14.724 588.768,18.411 584.057,23 575.04,23 566.024,23 561.312,18.411 557.526,14.724 554.115,11.401 551.65,9 546.292,9 540.934,9 538.469,11.401 535.058,14.724 531.272,18.411 526.561,23 517.544,23 508.527,23 503.815,18.411 500.03,14.724 496.619,11.401 494.153,9 488.796,9 483.438,9 480.973,11.401 477.561,14.724 473.774,18.411 469.062,23 460.046,23 451.029,23 446.317,18.411 442.53,14.724 439.118,11.401 436.653,9 431.293,9 425.935,9 423.47,11.401 420.058,14.724 416.272,18.411 411.56,23 402.543,23 393.526,23 388.814,18.411 385.028,14.724 381.616,11.401 379.151,9 373.792,9 368.434,9 365.969,11.401 362.557,14.724 358.771,18.411 354.059,23 345.042,23 336.025,23 331.313,18.411 327.527,14.724 324.114,11.401 321.649,9 316.291,9 310.933,9 308.467,11.401 305.055,14.724 301.269,18.411 296.556,23 287.539,23 278.521,23 273.81,18.411 270.023,14.724 266.611,11.401 264.145,9 258.786,9 253.429,9 250.964,11.401 247.552,14.724 243.767,18.411 239.055,23 230.039,23 221.022,23 216.31,18.411 212.524,14.724 209.112,11.401 206.647,9 201.289,9 195.931,9 193.465,11.401 190.053,14.724 186.267,18.411 181.555,23 172.538,23 163.52,23 158.808,18.411 155.021,14.724 151.609,11.401 149.144,9 143.784,9 c -5.36,0 -7.825,2.401 -11.238,5.724 -3.787,3.687 -8.5,8.276 -17.517,8.276 -9.018,0 -13.73,-4.589 -17.517,-8.276 C 94.099,11.401 91.633,9 86.273,9 80.913,9 78.447,11.401 75.034,14.724 71.249,18.411 66.536,23 57.518,23 48.5,23 43.787,18.412 40,14.724 36.586,11.401 34.12,9 28.759,9 23.398,9 20.932,11.401 17.519,14.724 13.732,18.411 9.019,23 0,23 L 0,14 C 5.361,14 7.827,11.599 11.241,8.276 15.028,4.588 19.741,0 28.759,0 37.777,0 42.49,4.588 46.278,8.276 49.691,11.599 52.157,14 57.518,14 62.878,14 65.343,11.599 68.756,8.276 72.543,4.589 77.255,0 86.273,0 c 9.018,0 13.73,4.589 17.517,8.276 3.413,3.323 5.879,5.724 11.239,5.724 5.36,0 7.826,-2.401 11.238,-5.724 3.787,-3.687 8.5,-8.276 17.517,-8.276 9.017,0 13.73,4.589 17.517,8.276 3.412,3.323 5.878,5.724 11.237,5.724 5.358,0 7.824,-2.401 11.236,-5.724 C 187.56,4.589 192.272,0 201.289,0 c 9.017,0 13.729,4.589 17.515,8.276 3.412,3.323 5.877,5.724 11.235,5.724 5.357,0 7.822,-2.401 11.234,-5.724 C 245.059,4.589 249.77,0 258.786,0 c 9.017,0 13.729,4.589 17.516,8.276 3.412,3.323 5.878,5.724 11.237,5.724 5.359,0 7.824,-2.401 11.236,-5.724 C 302.562,4.589 307.274,0 316.291,0 c 9.017,0 13.729,4.589 17.515,8.276 3.412,3.323 5.877,5.724 11.236,5.724 5.359,0 7.824,-2.401 11.236,-5.724 C 360.063,4.589 364.775,0 373.792,0 c 9.017,0 13.729,4.589 17.516,8.276 3.412,3.323 5.877,5.724 11.235,5.724 5.358,0 7.823,-2.401 11.235,-5.724 C 417.565,4.589 422.277,0 431.293,0 c 9.018,0 13.729,4.589 17.516,8.276 3.412,3.323 5.877,5.724 11.236,5.724 5.358,0 7.823,-2.401 11.235,-5.724 C 475.067,4.589 479.779,0 488.796,0 c 9.016,0 13.728,4.589 17.514,8.276 3.412,3.323 5.877,5.724 11.235,5.724 5.357,0 7.822,-2.401 11.234,-5.724 C 532.564,4.589 537.275,0 546.292,0 c 9.016,0 13.728,4.589 17.514,8.276 3.411,3.323 5.876,5.724 11.234,5.724 5.357,0 7.822,-2.401 11.234,-5.724 C 590.061,4.589 594.771,0 603.788,0 c 9.018,0 13.729,4.589 17.516,8.276 3.412,3.323 5.877,5.724 11.235,5.724 5.357,0 7.822,-2.401 11.234,-5.724 C 647.56,4.589 652.271,0 661.287,0 c 9.016,0 13.728,4.589 17.513,8.277 3.411,3.323 5.876,5.723 11.232,5.723 5.357,0 7.822,-2.401 11.234,-5.724 C 705.052,4.589 709.764,0 718.779,0 c 9.015,0 13.728,4.589 17.513,8.276 3.412,3.323 5.877,5.724 11.234,5.724 5.356,0 7.821,-2.401 11.232,-5.723 C 762.544,4.589 767.255,0 776.271,0 c 9.017,0 13.729,4.589 17.515,8.276 3.412,3.323 5.877,5.724 11.235,5.724 5.356,0 7.821,-2.401 11.232,-5.724 C 820.038,4.589 824.749,0 833.764,0 c 9.017,0 13.729,4.589 17.515,8.276 3.411,3.323 5.876,5.724 11.235,5.724 5.359,0 7.823,-2.401 11.235,-5.724 C 877.535,4.589 882.247,0 891.263,0 c 9.017,0 13.728,4.589 17.514,8.276 3.412,3.323 5.877,5.724 11.235,5.724 5.358,0 7.823,-2.401 11.235,-5.724 C 935.033,4.589 939.744,0 948.761,0 c 9.017,0 13.728,4.589 17.514,8.276 3.412,3.323 5.877,5.724 11.234,5.724 5.357,0 7.822,-2.401 11.234,-5.724 C 992.529,4.589 997.24,0 1006.257,0 c 9.017,0 13.729,4.589 17.515,8.276 3.412,3.323 5.877,5.724 11.235,5.724 5.357,0 7.822,-2.401 11.234,-5.724 3.786,-3.688 8.497,-8.276 17.514,-8.276 9.017,0 13.728,4.589 17.514,8.276 3.412,3.323 5.877,5.724 11.234,5.724 5.357,0 7.822,-2.401 11.234,-5.724 3.786,-3.688 8.498,-8.276 17.515,-8.276 9.017,0 13.728,4.589 17.514,8.276 3.412,3.323 5.877,5.724 11.234,5.724 l 0,9 z" />
  </symbol>
  <symbol
     transform="translate(555.48184,308.743)"
     viewBox="264.205 370.961 20.294 18.849"
     id="icon-cart">
    <path
       style="fill:#231f20"
       id="path4145"
       d="m 283.75,378.19 -3.151,0 -3.407,-6.814" />
  </symbol>
  <symbol
     transform="translate(555.48184,308.743)"
     viewBox="56.519 49.996 14.962 27.718"
     id="icon-fb">
    <path
       style="fill:#231f20"
       id="path4148"
       d="m 68.181,55.188 c 1.026,0.029 1.993,0 2.681,-0.3 0.391,-0.818 0.556,-1.854 0.619,-2.989 -0.19,-0.015 -0.062,-0.337 -0.207,-0.399 -0.029,-0.202 -0.278,-0.195 -0.309,-0.398 -0.277,-0.165 -0.457,-0.422 -0.723,-0.598 -0.727,-0.162 -1.44,-0.335 -2.164,-0.499 -0.849,0.044 -1.895,-0.103 -2.58,0.1 -2.619,-0.04 -3.997,1.12 -5.259,2.392 -0.023,0.078 -0.003,0.197 -0.105,0.199 -0.574,1.587 -0.125,3.621 -0.204,5.581 0.099,0.436 0.107,0.958 0.204,1.395 -0.998,0.296 -2.212,0.387 -3.402,0.499 -0.317,0.324 -0.178,1.089 -0.206,1.693 0.085,0.583 0.278,1.06 0.413,1.595 0.211,0.193 0.596,0.396 0.825,0.498 0.065,0.029 0.071,0.082 0.103,0.1 0.506,0.268 1.451,0.008 2.268,0.1 -0.136,1.978 0.256,3.915 0,5.68 0.007,0.327 0.295,0.382 0.208,0.798 -0.001,0.963 -0.067,1.99 0.208,2.69 -0.287,0.455 -0.497,0.982 -0.415,1.794 0.122,0.016 0.114,0.157 0.105,0.299 -0.075,0.47 0.643,0.175 0.515,0.698 0.162,0.456 -0.428,0.184 -0.413,0.498 l 0,0.896 c 0.53,0.285 1.462,0.182 2.268,0.199 0.908,-0.419 2.188,-0.479 2.785,-1.196 0.459,0.235 0.916,-0.014 1.238,-0.199 -0.018,-0.315 0.273,-0.333 0.205,-0.698 -0.004,-0.328 -0.173,-0.496 -0.103,-0.896 l 0,-2.89 c -0.206,-2.293 -0.048,-4.938 -0.309,-7.176 0.888,-0.105 1.917,-0.075 2.578,-0.398 0.357,-0.451 0.377,-1.23 0.516,-1.895 0.177,-0.226 0.221,-0.583 0.206,-0.996 0.19,-0.213 0.068,-0.729 0.104,-1.096 -0.141,-0.595 -0.168,-1.3 -0.825,-1.39 -0.884,-0.235 -2.043,0.595 -2.991,0.299 0.049,-1.134 -0.293,-2.342 0,-3.388 0.746,-0.181 1.446,-0.4 2.166,-0.602 z m -3.818,4.783 c 0.117,0.254 0.254,0.486 0.414,0.698 0.079,0.022 0.203,0.003 0.205,0.101 a 10.319,10.319 0 0 0 3.096,-0.299 c 0,0.998 -0.271,1.733 -0.518,2.492 -0.662,0.045 -1.467,0.3 -1.958,0.198 -0.276,0.165 -0.372,0.506 -0.62,0.698 -0.049,0.441 0.142,0.495 0,0.797 -0.201,0.137 -0.055,0.611 -0.205,0.796 l 0,1.496 c 0.085,0.281 -0.146,0.258 -0.104,0.497 l 0,3.488 c -0.085,0.281 0.146,0.258 0.104,0.498 l 0,2.989 c 0.063,0.271 -0.132,0.791 0.103,0.896 -0.07,0.364 -0.412,-0.021 -0.824,0.1 -0.528,0.122 -0.926,0.369 -1.548,0.4 0.117,-0.353 0.32,-0.622 0.311,-1.097 0.049,-0.381 -0.365,-0.312 -0.516,-0.49 0.193,-0.644 0.562,-1.117 0.722,-1.793 0.197,-0.515 0.714,-1.298 0.31,-1.794 -0.522,-0.105 -0.521,0.293 -0.826,0.398 -0.022,0.077 -0.002,0.196 -0.103,0.199 -0.023,0.077 -0.003,0.196 -0.103,0.199 0.01,0.12 -0.151,0.062 0,0 0.022,-0.078 0.002,-0.197 0.103,-0.199 0.023,-0.077 0.002,-0.197 0.103,-0.199 l 0,-0.299 c 0.368,-0.575 0.67,-1.214 0.826,-1.993 0.191,-0.28 0.283,-0.656 0.412,-0.997 0.156,-0.262 0.34,-0.869 0.104,-1.195 -0.517,0.033 -0.796,0.295 -0.93,0.697 -0.32,-0.189 0.161,-0.434 0.104,-0.697 0.138,-0.231 0.169,-0.566 0.309,-0.797 0.202,-0.413 0.564,-1.304 0,-1.596 -0.438,-0.023 -0.612,0.207 -0.723,0.498 -0.214,0.191 -0.43,0.383 -0.516,0.698 -0.373,-0.07 -0.143,-0.727 -0.206,-1.097 -0.067,-0.52 0.122,-0.899 0,-1.195 -0.56,-0.799 -2.026,-0.105 -3.197,-0.299 -0.108,-0.307 -0.222,-0.984 -0.104,-1.195 1.045,-0.088 2.479,0.201 3.197,-0.199 0.024,-0.078 0.003,-0.197 0.104,-0.199 0.094,-0.723 -0.271,-1 -0.515,-1.396 0.232,-0.806 0.04,-2.02 0.104,-2.989 0.233,-0.141 0.328,-0.414 0.515,-0.598 0.112,-0.955 0.673,-1.476 0.722,-2.49 -0.273,0.001 -0.607,-0.055 -0.619,0.199 -0.302,-0.114 -0.382,0.479 -0.515,0.199 -0.112,-0.541 0.246,-0.626 0.309,-0.997 0.599,-0.418 1.212,-0.82 1.856,-1.195 1.741,-0.244 4.648,-0.449 6.086,0.198 0.051,0.616 -0.287,0.854 -0.207,1.496 l -1.546,0 c -1.092,0.24 -1.987,0.672 -2.991,0.997 -0.24,0.066 -0.276,0.331 -0.516,0.398 -0.036,0.396 -0.225,0.646 -0.311,0.996 -0.079,1.431 0.133,2.589 0.102,3.978 z" />
  </symbol>
  <symbol
     transform="translate(555.48184,308.743)"
     viewBox="8.014 4.35 31.972 37.301"
     id="icon-feature-1">
    <path
       style="fill:#231f20"
       id="path4151"
       d="m 24,41.65 c 8.827,0 15.986,-7.159 15.986,-15.986 C 31.158,25.664 24,32.822 24,41.65 Z M 12.641,20.78 a 4.442,4.442 0 0 0 4.44,4.441 c 0.932,0 1.803,-0.294 2.513,-0.782 l -0.036,0.337 c 0,2.451 1.99,4.441 4.441,4.441 2.451,0 4.44,-1.99 4.44,-4.441 l -0.036,-0.337 a 4.396,4.396 0 0 0 2.514,0.782 c 2.451,0 4.44,-1.99 4.44,-4.441" />
  </symbol>
  <symbol
     transform="translate(555.48184,308.743)"
     viewBox="0 0 34.373 34.373"
     id="icon-feature-2">
    <path
       id="path4154"
       d="M 0.286,14.069 A 17.244,17.244 0 0 0 0.294,20.37 L 4.415,17.16 0.286,14.069 Z M 24.403,1.585 C 19.62,-0.623 13.959,-0.559 9.149,1.992 l 7.513,5.625 7.741,-6.032 z m 9.498,11.59 -4.811,3.748 4.936,3.695" />
  </symbol>
  <symbol
     transform="translate(555.48184,308.743)"
     viewBox="46.212 56.834 46.575 27.332"
     id="icon-feature-3">
    <path
       id="path4157"
       d="m 88.882,56.834 -38.766,0" />
    <path
       id="path4159"
       d="m 53.14,77.88 32.395,0 0,-14.424 -32.395,0 0,14.424 z M 69.5,65.354 a 5.315,5.315 0 1 1 0,10.63 5.315,5.315 0 0 1 0,-10.63 z" />
  </symbol>
  <symbol
     transform="translate(555.48184,308.743)"
     viewBox="612.532 500.386 54.156 23.183"
     id="icon-feature-4">
    <path
       id="path4162"
       d="m 652.844,506.098 c -3.647,-0.971 -7.839,-1.667 -12.359,-1.666" />
  </symbol>
  <symbol
     transform="translate(555.48184,308.743)"
     viewBox="47.475 50.071 33.05 27.857"
     id="icon-feature-5">
    <path
       style="fill:#231f20"
       id="path4165"
       d="M 80.525,58.808" />
  </symbol>
  <symbol
     transform="translate(555.48184,308.743)"
     viewBox="239.665 239.757 32.666 32.486"
     id="icon-feature-6">
    <path
       style="fill:#231f20"
       id="path4168"
       d="m 242.56,272.243 12.504,0 0,-13.91 -12.504,0 0,13.91 z m 28.182,-23.62 -7.335,0 c 0.521,-0.267 0.984,-0.549 1.396,-0.845 1.588,-1.133 2.424,-2.57 2.42,-3.999 0.002,-1.169 -0.556,-2.202 -1.359,-2.901" />
  </symbol>
  <symbol
     transform="translate(555.48184,308.743)"
     viewBox="-11.34 -28.346 46.68 81.691"
     id="icon-flag">
    <path
       style="fill:#63d1bb"
       id="path4171"
       d="m -3.561,-24.455 0,38.9 38.9,-19.451 -38.9,-19.449 z m -7.779,77.801 0,-81.691 3.805,0 0,81.691 -3.805,0 z" />
    <g
       id="g4173">
      <path
         style="fill:#231f20"
         id="path4175"
         d="m -11.34,-28.346 3.805,0 0,81.691 -3.805,0 z" />
    </g>
  </symbol>
  <symbol
     transform="translate(555.48184,308.743)"
     viewBox="53.115 53.19 21.769 21.334"
     id="icon-insta">
    <path
       style="fill:#231f20"
       id="path4178"
       d="M 74.881,65.336 C 74.868,62.941 74.537,60.548 74.578,58.201" />
  </symbol>
  <symbol
     transform="translate(555.48184,308.743)"
     viewBox="-259.404 -19.675 40.219 62.411"
     id="icon-interior">
    <path
       id="path4181"
       d="m -244.227,18.283 c -0.286,0.966 -0.245,2.191 0.027,3.639 0.494,2.635 1.687,6.041 2.358,9.67 l 5.062,0 c 0.696,-3.641 1.949,-7.05 2.471,-9.683 0.287,-1.445 0.33,-2.66 0.041,-3.617 -0.275,-0.899 -0.89,-1.618 -2.021,-2.303 l -5.997,0 c -1.075,0.679 -1.674,1.391 -1.941,2.294 z m 11.832,19.995 -13.799,0 c -1.293,0 -2.299,0.976 -2.299,2.229 l 0,2.229 18.397,0 0,-2.229 c 0,-1.253 -1.006,-2.229 -2.299,-2.229 z m 7.133,-55.724 -11.732,0 c 0,-1.244 -1.015,-2.229 -2.3,-2.229 -1.283,0 -2.3,0.985 -2.3,2.229 l -11.737,0 -6.073,25.517 c 0.794,-0.461 1.589,-0.992 2.632,-0.992 1.359,0 2.243,0.818 2.924,1.375 0.682,0.557 1.162,0.849 1.447,0.849 0.292,10e-4 0.769,-0.287 1.451,-0.836 0.681,-0.548 1.564,-1.358 2.915,-1.358 1.349,0 2.237,0.806 2.919,1.354 0.684,0.549 1.161,0.84 1.451,0.84 0.146,0 0.338,-0.073 0.58,-0.214 0.242,-0.141 0.53,-0.353 0.872,-0.626 0.512,-0.411 1.139,-0.967 1.99,-1.218 0.284,-0.085 0.593,-0.136 0.93,-0.136 1.347,0 2.238,0.805 2.92,1.354 0.683,0.548 1.159,0.84 1.451,0.84 0.287,-0.002 0.766,-0.296 1.445,-0.85 0.684,-0.554 1.571,-1.367 2.925,-1.367 1.356,0 2.239,0.817 2.919,1.371 0.342,0.276 0.631,0.489 0.872,0.631 0.24,0.143 0.431,0.214 0.575,0.214 0.288,0 0.762,-0.293 1.442,-0.854 0.68,-0.559 1.567,-1.384 2.929,-1.384 1.044,0 1.839,0.533 2.632,0.997 l -6.079,-25.507 z m -10.619,51.266 -6.864,0 c -0.657,0 -1.15,0.479 -1.15,1.115 0,0.635 0.493,1.113 1.15,1.113 l 6.9,0 c 0.655,0 1.15,-0.479 1.15,-1.113 0,-0.636 -0.495,-1.115 -1.15,-1.115 l -0.036,0 z m -3.414,-24.484 c -0.146,0 -0.338,0.074 -0.58,0.213 -0.157,0.094 -0.37,0.261 -0.57,0.41 l 0,3.731 2.299,0 0,-3.731 c -0.505,-0.378 -0.908,-0.623 -1.149,-0.623 z" />
  </symbol>
  <symbol
     transform="translate(555.48184,308.743)"
     viewBox="0 0 50 26.003"
     id="icon-left-arrow">
    <path
       id="path4184"
       d="m 50,11.002 -42.341,0 L 15.833,2.828 13.005,0 0,12.998 0.003,13.001 0,13.005 13.005,26.003 15.833,23.175 7.661,15.002 50,15.002 Z" />
  </symbol>
  <symbol
     transform="translate(555.48184,308.743)"
     viewBox="0 0 32 32"
     id="icon-mail">
    <path
       style="fill:#333333"
       id="path4187"
       d="M 28,5 4,5" />
  </symbol>
  <symbol
     transform="translate(555.48184,308.743)"
     viewBox="0 0 20.514 20.512"
     id="icon-menu-close">
    <path
       style="fill:#231f20"
       id="path4190"
       d="M 20.513,1.414 19.099,0 10.256,8.842 1.414,0 0,1.414 8.842,10.256 0,19.098 l 1.414,1.414 8.842,-8.842 8.843,8.842 1.414,-1.414 -8.842,-8.842 z" />
  </symbol>
  <symbol
     transform="translate(555.48184,308.743)"
     viewBox="0 0 19.958 14"
     id="icon-menu-open">
    <path
       style="fill:#231f20"
       id="path4193"
       d="m 0,0 19.958,0 0,2 L 0,2 Z m 0,6 19.958,0 0,2 L 0,8 Z m 0,6 19.958,0 0,2 L 0,14 Z" />
  </symbol>
  <symbol
     transform="translate(555.48184,308.743)"
     viewBox="0 0 24.829 24.333"
     id="icon-phone">
    <path
       id="path4196"
       d="m 17.321,24.333 -1.115,0 C 11.302,23.753 7.709,21.476 5.096,18.561 2.473,15.637 0.402,11.875 0,6.817 L 0,5.459 C 0.091,4.538 0.544,3.909 1.067,3.373 1.717,2.707 2.697,1.851 3.589,1.82 c 0.659,-0.022 1.78,0.451 2.232,1.066 0.388,0.53 0.595,1.59 0.775,2.378 0.185,0.797 0.6,1.95 0.485,2.717 -0.176,1.196 -1.764,1.703 -2.231,2.572 1.551,3.721 4.089,6.456 7.472,8.345 0.847,-0.465 1.595,-1.864 2.767,-1.892 0.428,-0.012 0.972,0.209 1.406,0.34 0.477,0.143 0.891,0.326 1.311,0.484 0.705,0.266 1.957,0.621 2.378,1.213 0.433,0.61 0.681,1.608 0.581,2.231 -0.194,1.234 -2.227,2.603 -3.444,3.059 z M 12.529,1.528 c 5.949,0 10.771,4.822 10.771,10.771 l 1.529,0 C 24.829,5.507 19.323,0 12.529,0 l 0,1.528 z" />
    <path
       id="path4198"
       d="m 12.529,9.327 0,1.552 a 1.42,1.42 0 0 1 1.421,1.42 l 1.553,0" />
  </symbol>
  <symbol
     transform="translate(555.48184,308.743)"
     viewBox="247.3 382.56 100.678 76.891"
     id="icon-play">
    <path
       style="fill:#63d1bb"
       id="path4201"
       d="m 344.255,400.708 c 0,0 -0.92,-7.008 -3.785,-10.078 -3.632,-4.041 -7.674,-4.066 -9.541,-4.297 -13.326,-1.023 -33.303,-1.023 -33.303,-1.023 l -0.051,0 c 0,0 -19.978,0 -33.304,1.023 -1.867,0.23 -5.908,0.256 -9.54,4.297 -2.84,3.096 -3.786,10.078 -3.786,10.078 0,0 -0.896,8.211 -0.896,16.422 l 0,7.699 c 0,8.21 0.947,16.421 0.947,16.421 0,0 0.921,7.009 3.785,10.078 3.632,4.041 8.364,3.913 10.487,4.349 7.622,0.767 32.356,1.022 32.356,1.022 0,0 20.003,-0.025 33.329,-1.048 1.867,-0.23 5.908,-0.256 9.54,-4.298 2.84,-3.069 3.786,-10.078 3.786,-10.078 0,0 0.946,-8.21 0.946,-16.421 l 0,-7.699 c -0.023,-8.236 -0.97,-16.447 -0.97,-16.447 z" />
    <path
       style="fill:#ffffff"
       id="path4203"
       d="m 297.614,459.449 -0.016,0 c -1.015,-0.011 -24.946,-0.266 -32.604,-1.037 l -0.14,-0.014 -0.137,-0.028 c -0.271,-0.056 -0.668,-0.107 -1.126,-0.167 -2.503,-0.328 -7.159,-0.938 -10.839,-5.019 -3.354,-3.616 -4.377,-10.771 -4.483,-11.576 l -0.005,-0.043 c -0.039,-0.342 -0.965,-8.463 -0.965,-16.736 l 0,-7.699 c 0,-8.266 0.875,-16.378 0.912,-16.72 l 0.009,-0.071 c 0.108,-0.802 1.155,-7.928 4.474,-11.557 3.996,-4.439 8.531,-4.899 10.712,-5.121 0.192,-0.02 0.37,-0.037 0.529,-0.058 l 0.126,-0.013 c 13.277,-1.019 33.312,-1.031 33.514,-1.031 l 0.051,0 c 0.201,0 20.236,0.013 33.514,1.031 l 0.126,0.013 c 0.159,0.021 0.337,0.038 0.529,0.058 2.179,0.221 6.71,0.682 10.704,5.112 3.354,3.616 4.377,10.771 4.483,11.577 l 0.005,0.043 c 0.039,0.342 0.965,8.459 0.99,16.753 l 0,7.708 c 0,8.273 -0.926,16.395 -0.965,16.736 l -0.007,0.053 c -0.108,0.805 -1.156,7.953 -4.478,11.562 -3.994,4.435 -8.527,4.896 -10.707,5.117 -0.193,0.02 -0.371,0.037 -0.53,0.057 l -0.126,0.013 c -13.276,1.02 -33.334,1.057 -33.535,1.058 l -0.015,-10e-4 z m -31.944,-6.497 c 7.477,0.729 31.216,0.989 31.968,0.997 0.657,-0.001 20.135,-0.049 33.047,-1.036 0.178,-0.021 0.371,-0.041 0.58,-0.062 1.836,-0.186 4.608,-0.468 7.186,-3.335 l 0.026,-0.029 c 1.825,-1.974 2.853,-6.928 3.075,-8.552 0.059,-0.514 0.926,-8.358 0.926,-16.08 l 0,-7.699 c -0.023,-7.76 -0.896,-15.627 -0.951,-16.109 -0.32,-2.382 -1.434,-6.789 -3.066,-8.539 l -0.035,-0.038 c -2.577,-2.868 -5.351,-3.149 -7.186,-3.336" />
    <g
       id="g4205">
      <path
         style="fill:#ffffff"
         id="path4207"
         d="m 285.733,403.138 0,35.708 29.747,-17.854 z" />
    </g>
  </symbol>
  <symbol
     transform="translate(555.48184,308.743)"
     viewBox="0 0 50 26.003"
     id="icon-right-arrow">
    <path
       id="path4210"
       d="m 0,11.002 42.341,0 L 34.166,2.828 36.995,0 50,12.998 49.996,13.001 50,13.005 36.995,26.003 34.166,23.175 42.339,15.002 0,15.002 Z" />
  </symbol>
  <symbol
     transform="translate(555.48184,308.743)"
     viewBox="-0.8 -0.8 17.6 17.6"
     id="icon-search">
    <path
       style="fill:#231f20"
       id="path4213"
       d="M 16.47,14.93 13.055,11.515 A 7.67,7.67 0 0 0 14.6,6.899 C 14.6,2.646 11.153,-0.8 6.9,-0.8 c -4.253,0 -7.7,3.446 -7.7,7.699 0,4.253 3.446,7.7 7.699,7.7 1.734,0 3.326,-0.58 4.613,-1.546 l 3.417,3.416 c 0.203,0.202 0.418,0.33 0.771,0.33 a 1.1,1.1 0 0 0 1.1,-1.1 c 0,-0.24 -0.061,-0.499 -0.33,-0.769 z M 1.399,6.899 a 5.5,5.5 0 1 1 11,0 c 0,3.038 -2.462,5.5 -5.5,5.5 -3.038,0 -5.5,-2.461 -5.5,-5.5 z" />
  </symbol>
  <symbol
     transform="translate(555.48184,308.743)"
     viewBox="0 0 32.666 22.742"
     id="icon-tick">
    <path
       id="path4216"
       d="M 32.666,1.414 31.252,0 11.338,19.914 1.414,9.989 0,11.403 l 9.924,9.925 1.414,1.414 0.001,0 1.414,-1.414 -10e-4,0 z" />
  </symbol>
  <symbol
     transform="translate(555.48184,308.743)"
     viewBox="226.001 226.19 60 59.62"
     id="icon-toy">
    <path
       style="fill:#231f20"
       id="path4219"
       d="m 226.001,269.871 27.438,15.934 0,-23.346 -27.438,-15.94 0,23.352 z m 51.346,-31.244 0,2.453 c 0,1.817 -3.458,3.29 -7.73,3.29 -4.266,0 -7.727,-1.473 -7.727,-3.29 l 0,-4.059 0.024,0 c 0.26,1.714 3.604,3.073 7.702,3.073 4.272,0 7.729,-1.474 7.729,-3.285 0,-1.819 -3.457,-3.289 -7.729,-3.289 -0.339,0 -0.675,0.01 -1.002,0.03 l -4.975,-2.888 0,3.086 c 0,1.817 -3.454,3.29 -7.723,3.29 -2.683,0 -5.045,-0.583 -6.433,-1.467" />
  </symbol>
  <symbol
     transform="translate(555.48184,308.743)"
     viewBox="52.253 53.771 23.494 20.168"
     id="icon-twitter">
    <path
       style="fill:#231f20"
       id="path4222"
       d="m 75.706,57.855 c -0.227,-0.366 -0.909,-0.277 -1.407,-0.371 l -1.112,0 c 0.142,-0.353 0.343,-0.646 0.52,-0.963 0.056,-0.438 0.254,-0.734 0.223,-1.26 0.129,-0.167 0.176,-0.417 0.296,-0.593 0.104,-0.144 0.242,-0.477 0.074,-0.667 -0.051,-0.221 -0.295,-0.249 -0.593,-0.222" />
  </symbol>
  <symbol
     transform="translate(555.48184,308.743)"
     viewBox="0 0 32 32"
     id="icon-video">
    <path
       id="path4225"
       d="m 26,15 6,-4 0,16 -6,-4 0,-8 z m -2,0 0,8" />
  </symbol>
  <path
     style="fill:#ffffff"
     d="m 1126.0944,1 c -14.375,0 -14.375,14 -28.749,14 -14.374,0 -14.374,-14 -28.748,-14 -14.374,0 -14.374,14 -28.748,14 -14.375,0 -14.375,-14 -28.75,-14 -14.37402,0 -14.37402,14 -28.74802,14 -14.374,0 -14.374,-14 -28.748,-14 -14.374,0 -14.374,14 -28.749,14 -14.375,0 -14.375,-14 -28.749,-14 -14.374,0 -14.374,14 -28.749,14 -14.375,0 -14.375,-14 -28.75,-14 -14.371,0 -14.371,14 -28.743,14 -14.375,0 -14.375,-14 -28.75,-14 -14.372,0 -14.372,14 -28.744,14 -14.374,0 -14.374,-14 -28.747,-14 -14.373,0 -14.373,14 -28.747,14 -14.373,0 -14.373,-14 -28.746,-14 -14.374,0 -14.374,14 -28.748,14 -14.375,0 -14.375,-14 -28.751,-14 -14.374,0 -14.374,14 -28.748,14 -14.374,0 -14.374,-14 -28.748,-14 -14.374,0 -14.374,14 -28.748,14 -14.374,0 -14.374,-14 -28.748,-14 -14.375,0 -14.375,14 -28.75,14 -14.376,0 -14.376,-14 -28.753,-14 -14.375,0 -14.375,14 -28.75,14 -14.375,0 -14.375,-14 -28.751,-14 -14.375,0 -14.375,14 -28.75,14 -14.375,0 -14.376,-14 -28.751,-14 -14.375,0 -14.375,14 -28.751,14 -14.376,0 -14.376,-14 -28.753,-14 -14.374,0 -14.374,14 -28.747,14 -14.375,0 -14.375,-14 -28.75,-14 -14.375,0 -14.375,14 -28.751,14 -14.377,0 -14.377,-14 -28.754,-14 -14.377,0 -14.377,14 -28.755,14 -14.378,0 -14.378,-14 -28.756,-14 -14.378,0 -14.378,14 -28.756,14 -14.379,0 -14.379,-14 -28.759,-14 -14.38,0 -14.379,14 -28.759,14 l 0,20 1150.00002,0 0,-20 c -14.374,0 -14.374,-14 -28.748,-14 z"
     id="path4234" />
  <g
     transform="translate(1.91911,44.50244)"
     id="g4244">
    <path
       style="fill:#e6e7e8"
       d="m 1150,23 c -9.017,0 -13.728,-4.589 -17.514,-8.276 C 1129.074,11.401 1126.609,9 1121.252,9 c -5.358,0 -7.823,2.401 -11.235,5.724 -3.786,3.688 -8.497,8.276 -17.514,8.276 -9.017,0 -13.728,-4.589 -17.514,-8.276 C 1071.577,11.401 1069.112,9 1063.755,9 c -5.357,0 -7.822,2.401 -11.234,5.724 -3.786,3.688 -8.497,8.276 -17.514,8.276 -9.017,0 -13.729,-4.589 -17.515,-8.276 C 1014.08,11.401 1011.615,9 1006.257,9 1000.9,9 998.435,11.401 995.023,14.724 991.236,18.411 986.525,23 977.509,23 968.493,23 963.781,18.411 959.995,14.724 956.583,11.401 954.118,9 948.761,9 943.404,9 940.939,11.401 937.527,14.724 933.74,18.411 929.028,23 920.012,23 910.996,23 906.283,18.411 902.497,14.724 899.085,11.401 896.62,9 891.263,9 885.906,9 883.441,11.401 880.029,14.724 876.242,18.411 871.53,23 862.514,23 853.498,23 848.785,18.411 844.999,14.724 841.587,11.401 839.122,9 833.764,9 c -5.355,0 -7.82,2.4 -11.231,5.723 C 818.747,18.411 814.036,23 805.021,23 796.004,23 791.292,18.411 787.506,14.724 784.094,11.401 781.629,9 776.271,9 770.915,9 768.45,11.401 765.039,14.723 761.253,18.411 756.542,23 747.526,23 738.509,23 733.797,18.411 730.012,14.723 726.602,11.401 724.137,9 718.779,9 713.421,9 710.958,11.401 707.546,14.723 703.761,18.411 699.049,23 690.032,23 681.016,23 676.305,18.411 672.52,14.724 669.109,11.401 666.645,9 661.287,9 655.929,9 653.465,11.401 650.053,14.724 646.267,18.411 641.556,23 632.539,23 623.522,23 618.81,18.411 615.024,14.724 611.612,11.401 609.147,9 603.788,9 598.431,9 595.966,11.401 592.554,14.724 588.768,18.411 584.057,23 575.04,23 566.024,23 561.312,18.411 557.526,14.724 554.115,11.401 551.65,9 546.292,9 540.934,9 538.469,11.401 535.058,14.724 531.272,18.411 526.561,23 517.544,23 508.527,23 503.815,18.411 500.03,14.724 496.619,11.401 494.153,9 488.796,9 483.438,9 480.973,11.401 477.561,14.724 473.774,18.411 469.062,23 460.046,23 451.029,23 446.317,18.411 442.53,14.724 439.118,11.401 436.653,9 431.293,9 425.935,9 423.47,11.401 420.058,14.724 416.272,18.411 411.56,23 402.543,23 393.526,23 388.814,18.411 385.028,14.724 381.616,11.401 379.151,9 373.792,9 368.434,9 365.969,11.401 362.557,14.724 358.771,18.411 354.059,23 345.042,23 336.025,23 331.313,18.411 327.527,14.724 324.114,11.401 321.649,9 316.291,9 310.933,9 308.467,11.401 305.055,14.724 301.269,18.411 296.556,23 287.539,23 278.521,23 273.81,18.411 270.023,14.724 266.611,11.401 264.145,9 258.786,9 253.429,9 250.964,11.401 247.552,14.724 243.767,18.411 239.055,23 230.039,23 221.022,23 216.31,18.411 212.524,14.724 209.112,11.401 206.647,9 201.289,9 195.931,9 193.465,11.401 190.053,14.724 186.267,18.411 181.555,23 172.538,23 163.52,23 158.808,18.411 155.021,14.724 151.609,11.401 149.144,9 143.784,9 c -5.36,0 -7.825,2.401 -11.238,5.724 -3.787,3.687 -8.5,8.276 -17.517,8.276 -9.018,0 -13.73,-4.589 -17.517,-8.276 C 94.099,11.401 91.633,9 86.273,9 80.913,9 78.447,11.401 75.034,14.724 71.249,18.411 66.536,23 57.518,23 48.5,23 43.787,18.412 40,14.724 36.586,11.401 34.12,9 28.759,9 23.398,9 20.932,11.401 17.519,14.724 13.732,18.411 9.019,23 0,23 L 0,14 C 5.361,14 7.827,11.599 11.241,8.276 15.028,4.588 19.741,0 28.759,0 37.777,0 42.49,4.588 46.278,8.276 49.691,11.599 52.157,14 57.518,14 62.878,14 65.343,11.599 68.756,8.276 72.543,4.589 77.255,0 86.273,0 c 9.018,0 13.73,4.589 17.517,8.276 3.413,3.323 5.879,5.724 11.239,5.724 5.36,0 7.826,-2.401 11.238,-5.724 3.787,-3.687 8.5,-8.276 17.517,-8.276 9.017,0 13.73,4.589 17.517,8.276 3.412,3.323 5.878,5.724 11.237,5.724 5.358,0 7.824,-2.401 11.236,-5.724 C 187.56,4.589 192.272,0 201.289,0 c 9.017,0 13.729,4.589 17.515,8.276 3.412,3.323 5.877,5.724 11.235,5.724 5.357,0 7.822,-2.401 11.234,-5.724 C 245.059,4.589 249.77,0 258.786,0 c 9.017,0 13.729,4.589 17.516,8.276 3.412,3.323 5.878,5.724 11.237,5.724 5.359,0 7.824,-2.401 11.236,-5.724 C 302.562,4.589 307.274,0 316.291,0 c 9.017,0 13.729,4.589 17.515,8.276 3.412,3.323 5.877,5.724 11.236,5.724 5.359,0 7.824,-2.401 11.236,-5.724 C 360.063,4.589 364.775,0 373.792,0 c 9.017,0 13.729,4.589 17.516,8.276 3.412,3.323 5.877,5.724 11.235,5.724 5.358,0 7.823,-2.401 11.235,-5.724 C 417.565,4.589 422.277,0 431.293,0 c 9.018,0 13.729,4.589 17.516,8.276 3.412,3.323 5.877,5.724 11.236,5.724 5.358,0 7.823,-2.401 11.235,-5.724 C 475.067,4.589 479.779,0 488.796,0 c 9.016,0 13.728,4.589 17.514,8.276 3.412,3.323 5.877,5.724 11.235,5.724 5.357,0 7.822,-2.401 11.234,-5.724 C 532.564,4.589 537.275,0 546.292,0 c 9.016,0 13.728,4.589 17.514,8.276 3.411,3.323 5.876,5.724 11.234,5.724 5.357,0 7.822,-2.401 11.234,-5.724 C 590.061,4.589 594.771,0 603.788,0 c 9.018,0 13.729,4.589 17.516,8.276 3.412,3.323 5.877,5.724 11.235,5.724 5.357,0 7.822,-2.401 11.234,-5.724 C 647.56,4.589 652.271,0 661.287,0 c 9.016,0 13.728,4.589 17.513,8.277 3.411,3.323 5.876,5.723 11.232,5.723 5.357,0 7.822,-2.401 11.234,-5.724 C 705.052,4.589 709.764,0 718.779,0 c 9.015,0 13.728,4.589 17.513,8.276 3.412,3.323 5.877,5.724 11.234,5.724 5.356,0 7.821,-2.401 11.232,-5.723 C 762.544,4.589 767.255,0 776.271,0 c 9.017,0 13.729,4.589 17.515,8.276 3.412,3.323 5.877,5.724 11.235,5.724 5.356,0 7.821,-2.401 11.232,-5.724 C 820.038,4.589 824.749,0 833.764,0 c 9.017,0 13.729,4.589 17.515,8.276 3.411,3.323 5.876,5.724 11.235,5.724 5.359,0 7.823,-2.401 11.235,-5.724 C 877.535,4.589 882.247,0 891.263,0 c 9.017,0 13.728,4.589 17.514,8.276 3.412,3.323 5.877,5.724 11.235,5.724 5.358,0 7.823,-2.401 11.235,-5.724 C 935.033,4.589 939.744,0 948.761,0 c 9.017,0 13.728,4.589 17.514,8.276 3.412,3.323 5.877,5.724 11.234,5.724 5.357,0 7.822,-2.401 11.234,-5.724 C 992.529,4.589 997.24,0 1006.257,0 c 9.017,0 13.729,4.589 17.515,8.276 3.412,3.323 5.877,5.724 11.235,5.724 5.357,0 7.822,-2.401 11.234,-5.724 3.786,-3.688 8.497,-8.276 17.514,-8.276 9.017,0 13.728,4.589 17.514,8.276 3.412,3.323 5.877,5.724 11.234,5.724 5.357,0 7.822,-2.401 11.234,-5.724 3.786,-3.688 8.498,-8.276 17.515,-8.276 9.017,0 13.728,4.589 17.514,8.276 3.412,3.323 5.877,5.724 11.234,5.724 l 0,9 z"
       id="path4246" />
  </g>
  <path
     style="fill:#231f20"
     d="m 383.63495,222.38146 -3.151,0 -3.407,-6.81399 c -0.185,-0.37 -0.634,-0.52 -1.006,-0.335 -0.371,0.186 -0.521,0.636 -0.335,1.006 l 3.071,6.14299 -9.138,0 3.072,-6.14299 c 0.185,-0.371 0.035,-0.821 -0.335,-1.006 -0.37,-0.185 -0.821,-0.035 -1.006,0.335 l -3.407,6.81399 -3.151,0 c -0.414,0 -0.75,0.336 -0.75,0.75 0,0.414 0.336,0.75 0.75,0.75 l 0.157,0 0.855,2.991 c -0.187,0.137 -0.316,0.347 -0.316,0.595 0,0.396 0.309,0.71 0.697,0.739 l 1.656,5.795 12.697,0 1.656,-5.795 c 0.388,-0.028 0.698,-0.344 0.698,-0.739 0,-0.249 -0.129,-0.459 -0.316,-0.596 l 0.854,-2.991 0.157,0 c 0.414,0 0.75,-0.336 0.75,-0.75 0,-0.414 -0.338,-0.749 -0.752,-0.749 z m -4.181,10.121 -10.433,0 -1.224,-4.284 12.881,0 -1.224,4.284 z m 1.653,-5.785 -13.739,0 -0.81,-2.836 15.359,0 -0.81,2.836 z"
     id="path4257" />
  <g
     transform="translate(374.55126,153.65881)"
     id="facebook">
    <g
       id="g4268">
      <path
         style="fill:#231f20"
         d="m 68.181,55.188 c 1.026,0.029 1.993,0 2.681,-0.3 0.391,-0.818 0.556,-1.854 0.619,-2.989 -0.19,-0.015 -0.062,-0.337 -0.207,-0.399 -0.029,-0.202 -0.278,-0.195 -0.309,-0.398 -0.277,-0.165 -0.457,-0.422 -0.723,-0.598 -0.727,-0.162 -1.44,-0.335 -2.164,-0.499 -0.849,0.044 -1.895,-0.103 -2.58,0.1 -2.619,-0.04 -3.997,1.12 -5.259,2.392 -0.023,0.078 -0.003,0.197 -0.105,0.199 -0.574,1.587 -0.125,3.621 -0.204,5.581 0.099,0.436 0.107,0.958 0.204,1.395 -0.998,0.296 -2.212,0.387 -3.402,0.499 -0.317,0.324 -0.178,1.089 -0.206,1.693 0.085,0.583 0.278,1.06 0.413,1.595 0.211,0.193 0.596,0.396 0.825,0.498 0.065,0.029 0.071,0.082 0.103,0.1 0.506,0.268 1.451,0.008 2.268,0.1 -0.136,1.978 0.256,3.915 0,5.68 0.007,0.327 0.295,0.382 0.208,0.798 -0.001,0.963 -0.067,1.99 0.208,2.69 -0.287,0.455 -0.497,0.982 -0.415,1.794 0.122,0.016 0.114,0.157 0.105,0.299 -0.075,0.47 0.643,0.175 0.515,0.698 0.162,0.456 -0.428,0.184 -0.413,0.498 l 0,0.896 c 0.53,0.285 1.462,0.182 2.268,0.199 0.908,-0.419 2.188,-0.479 2.785,-1.196 0.459,0.235 0.916,-0.014 1.238,-0.199 -0.018,-0.315 0.273,-0.333 0.205,-0.698 -0.004,-0.328 -0.173,-0.496 -0.103,-0.896 l 0,-2.89 c -0.206,-2.293 -0.048,-4.938 -0.309,-7.176 0.888,-0.105 1.917,-0.075 2.578,-0.398 0.357,-0.451 0.377,-1.23 0.516,-1.895 0.177,-0.226 0.221,-0.583 0.206,-0.996 0.19,-0.213 0.068,-0.729 0.104,-1.096 -0.141,-0.595 -0.168,-1.3 -0.825,-1.39 -0.884,-0.235 -2.043,0.595 -2.991,0.299 0.049,-1.134 -0.293,-2.342 0,-3.388 0.746,-0.181 1.446,-0.4 2.166,-0.602 z m -3.818,4.783 c 0.117,0.254 0.254,0.486 0.414,0.698 0.079,0.022 0.203,0.003 0.205,0.101 1.192,0.056 2.199,-0.069 3.096,-0.299 0,0.998 -0.271,1.733 -0.518,2.492 -0.662,0.045 -1.467,0.3 -1.958,0.198 -0.276,0.165 -0.372,0.506 -0.62,0.698 -0.049,0.441 0.142,0.495 0,0.797 -0.201,0.137 -0.055,0.611 -0.205,0.796 l 0,1.496 c 0.085,0.281 -0.146,0.258 -0.104,0.497 l 0,3.488 c -0.085,0.281 0.146,0.258 0.104,0.498 l 0,2.989 c 0.063,0.271 -0.132,0.791 0.103,0.896 -0.07,0.364 -0.412,-0.021 -0.824,0.1 -0.528,0.122 -0.926,0.369 -1.548,0.4 0.117,-0.353 0.32,-0.622 0.311,-1.097 0.049,-0.381 -0.365,-0.312 -0.516,-0.49 0.193,-0.644 0.562,-1.117 0.722,-1.793 0.197,-0.515 0.714,-1.298 0.31,-1.794 -0.522,-0.105 -0.521,0.293 -0.826,0.398 -0.022,0.077 -0.002,0.196 -0.103,0.199 -0.023,0.077 -0.003,0.196 -0.103,0.199 0.01,0.12 -0.151,0.062 0,0 0.022,-0.078 0.002,-0.197 0.103,-0.199 0.023,-0.077 0.002,-0.197 0.103,-0.199 l 0,-0.299 c 0.368,-0.575 0.67,-1.214 0.826,-1.993 0.191,-0.28 0.283,-0.656 0.412,-0.997 0.156,-0.262 0.34,-0.869 0.104,-1.195 -0.517,0.033 -0.796,0.295 -0.93,0.697 -0.32,-0.189 0.161,-0.434 0.104,-0.697 0.138,-0.231 0.169,-0.566 0.309,-0.797 0.202,-0.413 0.564,-1.304 0,-1.596 -0.438,-0.023 -0.612,0.207 -0.723,0.498 -0.214,0.191 -0.43,0.383 -0.516,0.698 -0.373,-0.07 -0.143,-0.727 -0.206,-1.097 -0.067,-0.52 0.122,-0.899 0,-1.195 -0.56,-0.799 -2.026,-0.105 -3.197,-0.299 -0.108,-0.307 -0.222,-0.984 -0.104,-1.195 1.045,-0.088 2.479,0.201 3.197,-0.199 0.024,-0.078 0.003,-0.197 0.104,-0.199 0.094,-0.723 -0.271,-1 -0.515,-1.396 0.232,-0.806 0.04,-2.02 0.104,-2.989 0.233,-0.141 0.328,-0.414 0.515,-0.598 0.112,-0.955 0.673,-1.476 0.722,-2.49 -0.273,0.001 -0.607,-0.055 -0.619,0.199 -0.302,-0.114 -0.382,0.479 -0.515,0.199 -0.112,-0.541 0.246,-0.626 0.309,-0.997 0.599,-0.418 1.212,-0.82 1.856,-1.195 1.741,-0.244 4.648,-0.449 6.086,0.198 0.051,0.616 -0.287,0.854 -0.207,1.496 l -1.546,0 c -1.092,0.24 -1.987,0.672 -2.991,0.997 -0.24,0.066 -0.276,0.331 -0.516,0.398 -0.036,0.396 -0.225,0.646 -0.311,0.996 -0.079,1.431 0.133,2.589 0.102,3.978 z"
         id="path4270" />
    </g>
  </g>
  <path
     style="fill:#231f20"
     d="m 369.36734,121.91188 c 8.827,0 15.986,-7.159 15.986,-15.986 -8.828,0 -15.986,7.158 -15.986,15.986 z m -11.359,-20.87 c 0,2.451 1.989,4.441 4.44,4.441 0.932,0 1.803,-0.294 2.513,-0.782 l -0.036,0.337 c 0,2.451 1.99,4.441 4.441,4.441 2.451,0 4.44,-1.99 4.44,-4.441 l -0.036,-0.337 c 0.719,0.497 1.582,0.782 2.514,0.782 2.451,0 4.44,-1.99 4.44,-4.441 0,-1.768 -1.038,-3.286 -2.54,-3.997 1.492,-0.71 2.54,-2.229 2.54,-3.997 0,-2.451 -1.989,-4.44 -4.44,-4.44 -0.932,0 -1.803,0.293 -2.514,0.781 l 0.037,-0.337 c 0,-2.451 -1.989,-4.44 -4.44,-4.44 -2.451,0 -4.441,1.99 -4.441,4.44 l 0.036,0.337 c -0.719,-0.497 -1.581,-0.781 -2.513,-0.781 -2.451,0 -4.44,1.99 -4.44,4.44 0,1.768 1.039,3.286 2.54,3.997 -1.502,0.711 -2.541,2.229 -2.541,3.997 z m 11.359,-8.437 c 2.451,0 4.44,1.989 4.44,4.44 0,2.451 -1.989,4.44 -4.44,4.44 -2.451,0 -4.441,-1.99 -4.441,-4.44 0,-2.451 1.99,-4.44 4.441,-4.44 z m -15.986,13.321 c 0,8.827 7.158,15.986 15.986,15.986 0,-8.828 -7.158,-15.986 -15.986,-15.986 z"
     id="path4282" />
  <g
     transform="translate(288.11318,208.36548)"
     id="g4292">
    <path
       d="m 0.286,14.069 c -0.382,2.073 -0.384,4.211 0.008,6.301 L 4.415,17.16 0.286,14.069 Z"
       id="path4294" />
    <path
       d="M 24.403,1.585 C 19.62,-0.623 13.959,-0.559 9.149,1.992 l 7.513,5.625 7.741,-6.032 z"
       id="path4296" />
    <path
       d="m 33.901,13.175 -4.811,3.748 4.936,3.695 c 0.496,-2.445 0.463,-4.988 -0.125,-7.443 z"
       id="path4298" />
    <path
       d="m 9.209,32.414 c 4.844,2.534 10.724,2.65 15.73,0.113 l -8.096,-6.062 -7.634,5.949 z"
       id="path4300" />
    <path
       d="M 7.914,14.433 1.681,9.767 c -0.32,0.669 -0.595,1.356 -0.825,2.056 l 5.308,3.974 1.75,-1.364 z"
       id="path4302" />
    <path
       d="m 18.593,25.102 8.336,6.242 c 0.277,-0.191 0.551,-0.391 0.82,-0.601 0.318,-0.248 0.625,-0.505 0.92,-0.771 l -8.326,-6.234 -1.75,1.364 z"
       id="path4304" />
    <path
       d="M 11.413,11.707 4.002,6.158 C 3.54,6.709 3.117,7.285 2.733,7.881 l 6.931,5.189 1.749,-1.363 z"
       id="path4306" />
    <path
       d="m 22.093,22.375 8.092,6.059 c 0.471,-0.544 0.904,-1.112 1.297,-1.701 l -7.639,-5.721 -1.75,1.363 z"
       id="path4308" />
    <path
       d="M 14.913,8.98 7.196,3.203 C 7.003,3.341 6.812,3.482 6.623,3.629 6.227,3.938 5.849,4.261 5.487,4.597 l 7.676,5.747 1.75,-1.364 z"
       id="path4310" />
    <path
       d="m 25.592,19.649 6.972,5.221 c 0.33,-0.662 0.615,-1.341 0.855,-2.033 l -6.077,-4.55 -1.75,1.362 z"
       id="path4312" />
    <path
       d="M 26.448,2.706 0.88,22.626 c 0.233,0.698 0.513,1.386 0.839,2.059 L 28.239,4.022 C 27.667,3.541 27.068,3.102 26.448,2.706 Z"
       id="path4314" />
    <path
       d="M 30.743,6.624 C 30.442,6.238 30.129,5.87 29.804,5.518 L 2.786,26.567 c 0.262,0.402 0.542,0.797 0.843,1.183 0.142,0.183 0.288,0.359 0.436,0.534 L 31.155,7.176 C 31.021,6.99 30.886,6.806 30.743,6.624 Z"
       id="path4316" />
    <path
       d="M 32.298,8.999 5.552,29.838 C 6.096,30.339 6.666,30.8 7.26,31.22 L 33.222,10.992 C 32.959,10.314 32.651,9.648 32.298,8.999 Z"
       id="path4318" />
  </g>
  <g
     transform="translate(371.73142,32.76237)"
     id="g4351">
    <path
       d="m 88.882,56.834 -38.766,0 c -2.156,0 -3.904,1.749 -3.904,3.905 l 0,19.521 c 0,2.156 1.748,3.905 3.904,3.905 l 38.766,0 c 2.156,0 3.905,-1.749 3.905,-3.905 l 0,-19.521 c 0,-2.156 -1.749,-3.905 -3.905,-3.905 z m -39.647,24.95 0,-22.233 40.202,0 0,22.233 -40.202,0 z"
       id="path4341" />
    <path
       d="m 53.14,77.88 32.395,0 0,-14.424 -32.395,0 0,14.424 z M 69.5,65.354 c 2.936,0 5.315,2.38 5.315,5.314 0,2.936 -2.379,5.314 -5.315,5.314 -2.936,0 -5.314,-2.379 -5.314,-5.314 -0.001,-2.935 2.378,-5.314 5.314,-5.314 z"
       id="path4343" />
  </g>
  <g
     transform="translate(-330.65778,-408.47352)"
     id="g4356">
    <path
       d="m 652.844,506.098 c -3.647,-0.971 -7.839,-1.667 -12.359,-1.666 -2.891,10e-4 -5.457,0.243 -7.71,0.623 l -6.784,-4.668 -13.456,0.005 5.811,6.184 8.447,0 c -4.58,1.598 -6.759,3.515 -6.759,3.515 l 0.002,3.777 c 0,0 2.313,1.912 6.931,3.518 l -8.623,-0.005 -5.811,6.188 13.455,0.002 6.816,-4.692 c 2.261,0.398 4.822,0.647 7.681,0.648 4.522,-0.001 8.712,-0.697 12.36,-1.667 -1.176,-1.775 -1.915,-3.743 -1.918,-5.877 0.003,-2.141 0.738,-4.112 1.917,-5.885 z"
       id="path4358" />
    <path
       d="m 656.267,507.132 c -1.284,1.605 -1.969,3.25 -1.965,4.84 -0.007,1.597 0.677,3.238 1.968,4.847 6.399,-2.162 10.419,-4.841 10.419,-4.841 0,0 -4.019,-2.68 -10.422,-4.846 z"
       id="path4360" />
  </g>
  <path
     style="fill:#231f20"
     d="m 388.08479,159.94514 c 0,-4.825 -3.912,-8.736 -8.736,-8.736 -3.405,0 -6.348,1.951 -7.789,4.793 -1.441,-2.842 -4.384,-4.793 -7.789,-4.793 -4.825,0 -8.736,3.911 -8.736,8.736 0,9.127 14.657,19.121 16.525,19.121 1.869,0 16.525,-9.95 16.525,-19.121 z"
     id="path4372" />
  <path
     style="fill:#231f20"
     d="m 292.83605,181.38064 12.504,0 0,-13.91 -12.504,0 0,13.91 z m 28.182,-23.61999 -7.335,0 c 0.521,-0.267 0.984,-0.549 1.396,-0.845 1.588,-1.133 2.424,-2.57 2.42,-3.999 0.002,-1.169 -0.556,-2.202 -1.359,-2.901 -0.805,-0.704 -1.869,-1.119 -3.016,-1.121 -1.22,-0.001 -2.352,0.421 -3.32,1.069 -1.459,0.979 -2.606,2.451 -3.424,4.067 -0.039,0.079 -0.078,0.157 -0.115,0.236 -0.299,-0.623 -0.647,-1.226 -1.041,-1.792 -0.691,-0.985 -1.523,-1.86 -2.497,-2.511 -0.97,-0.646 -2.103,-1.069 -3.322,-1.069 -1.213,0.004 -2.323,0.514 -3.155,1.295 -0.828,0.783 -1.41,1.885 -1.412,3.135 -0.002,0.73 0.211,1.494 0.649,2.188 0.552,0.872 1.424,1.628 2.633,2.248 l -6.588,0 c -0.878,0 -1.591,0.712 -1.591,1.58999 l 0,5.897 15.396,0 0,-7.48799 1.873,0 0,7.48799 15.396,0 0,-5.897 c 0.003,-0.87899 -0.709,-1.58999 -1.588,-1.58999 m -22.362,-2.339 c -0.622,-0.391 -1,-0.785 -1.22,-1.135 -0.22,-0.354 -0.294,-0.662 -0.296,-0.963 -0.004,-0.504 0.248,-1.042 0.691,-1.461 0.437,-0.415 1.028,-0.667 1.562,-0.667 l 0.013,0 c 0.685,0 1.366,0.231 2.046,0.683 1.018,0.671 1.975,1.85 2.645,3.187 0.342,0.676 0.609,1.39 0.789,2.087 -3.082,-0.321 -5.078,-1.002 -6.23,-1.731 m 10.537,-1.627 c 0.557,-0.797 1.21,-1.466 1.887,-1.916 0.68,-0.451 1.362,-0.683 2.047,-0.683 l 0.006,0 c 0.574,0 1.117,0.22 1.494,0.55 0.377,0.336 0.571,0.739 0.573,1.171 -0.004,0.512 -0.272,1.259 -1.467,2.132 -1.138,0.825 -3.101,1.673 -6.127,2.265 0.29,-1.202 0.847,-2.472 1.587,-3.519 m -1.98,27.58599 12.506,0 0,-13.91 -12.506,0 0,13.91 z"
     id="path4382" />
  <g
     transform="translate(219.24361,107.08343)"
     id="g4408">
    <g
       id="miu">
      <g
         id="Artboard-1"
         transform="translate(-755,-443)">
        <g
           id="slice"
           transform="translate(215,119)" />
        <g
           id="editor-flag-triangle-notification-glyph">
          <path
             style="fill:#63d1bb"
             d="m 751.439,418.545 0,38.9 38.9,-19.451 -38.9,-19.449 z m -7.779,77.801 0,-81.691 3.805,0 0,81.691 -3.805,0 z"
             id="path4396" />
        </g>
      </g>
    </g>
    <g
       id="g4398">
      <rect
         style="fill:#231f20"
         x="-11.34"
         y="-28.346001"
         width="3.8050001"
         height="81.691002"
         id="rect4400" />
    </g>
  </g>
  <g
     transform="translate(370.16628,95.67172)"
     id="instagram">
    <g
       id="g4419">
      <path
         style="fill:#231f20"
         d="m 74.881,65.336 c -0.013,-2.395 -0.344,-4.788 -0.303,-7.135 -0.023,-0.788 -0.086,-1.535 -0.152,-2.278 -0.105,-0.3 -0.111,-0.699 -0.152,-1.062 -0.26,-0.17 -0.222,-0.64 -0.456,-0.835 -0.423,-0.233 -1.201,-0.114 -1.744,-0.22 -0.657,-0.026 -1.254,-0.115 -1.899,-0.153 -1.936,-0.101 -3.973,-0.076 -5.996,-0.076 -2.001,0 -3.954,-0.145 -5.695,-0.379 l -2.202,0 c -0.097,0.004 -0.105,0.098 -0.227,0.076 -0.599,0.034 -1.077,0.188 -1.595,0.303 -0.21,0.119 -0.421,0.235 -0.683,0.304 -0.136,0.192 -0.513,0.145 -0.607,0.379 -0.186,0.212 0.185,0.451 0,0.607 l 0,0.911 c 0.173,0.13 0.027,0.58 0.075,0.835 l 0,0.987 c -0.017,1.281 0.134,2.397 0.076,3.72 0.467,2.762 0.374,6.537 0.076,9.413 0.155,0.579 0.363,1.105 0.455,1.746 0.256,0.479 0.335,1.133 0.683,1.52 0.502,0.206 1.233,0.186 1.898,0.229 0.383,0.098 0.667,0.293 1.14,0.3 2.843,-0.21 5.496,-0.154 8.427,-0.229 2.704,0.24 5.802,0.188 8.275,-0.228 0.195,-0.134 0.128,-0.529 0.228,-0.76 -0.056,-0.385 0.207,-0.449 0.228,-0.759 0.131,-2.395 0.164,-4.789 0.15,-7.216 z M 61.899,59.111 c 0.757,-0.153 1.48,-0.341 2.429,-0.304 0.71,0.076 1.287,0.283 1.897,0.456 0.116,0.184 -0.243,0.547 0.153,0.684 l 0,0.076 c 0.059,0.017 0.149,0.002 0.151,0.076 0.445,0.035 0.794,0.167 1.063,0.379 0.45,0.055 0.536,0.476 1.138,0.3 -0.091,0.213 -0.084,0.524 -0.075,0.835 0.324,1.183 0.475,2.81 0.303,4.252 -0.164,0.163 -0.215,0.442 -0.303,0.683 -0.311,0.322 -0.481,0.785 -0.836,1.062 -0.095,0.236 -0.25,0.408 -0.454,0.533 -0.116,0.213 -0.206,0.452 -0.457,0.53 -0.298,0.163 -0.577,0.011 -0.834,-0.076 -0.446,0.162 -0.904,0.312 -1.215,0.607 C 64.043,69.108 63.211,69.029 62.429,68.9 62.187,68.761 61.942,68.627 61.594,68.595 61.367,68.391 61.098,68.231 60.758,68.14 60.657,68.013 60.421,68.022 60.303,67.911 60.105,67.882 60.074,67.684 59.847,67.682 59.729,67.27 59.404,67.064 59.315,66.62 59.089,66.289 59.007,65.815 58.86,65.405 c -0.043,-1.434 0.091,-2.692 0.379,-3.796 0.346,-0.591 0.779,-1.094 1.138,-1.67 0.249,0.021 0.365,-0.09 0.38,-0.304 0.306,0.053 0.434,-0.072 0.684,-0.075 0.257,0.008 0.269,-0.309 0.458,-0.449 z m -1.67,-2.733 c -0.117,-0.263 -0.066,-0.691 -0.075,-1.062 -0.007,-0.285 0.278,-0.279 0.304,-0.532 -0.003,-0.074 -0.093,-0.059 -0.152,-0.076 0.126,-0.146 0.701,-0.097 0.834,0 0.132,0.537 -0.354,0.455 -0.531,0.684 0.011,0.167 0.322,0.032 0.456,0.076 0.029,0.854 -0.059,1.496 0,2.202 l -0.456,0 c -0.007,0.234 0.229,0.226 0.456,0.228 -0.059,0.286 0.092,0.363 0.075,0.607 -0.226,0.153 -0.716,0.042 -1.062,0.075 -0.103,-0.594 0.235,-1.375 0.151,-2.202 z m -0.683,-1.594 c 0.088,-0.013 0.134,0.016 0.151,0.076 0.179,0.253 0.01,0.683 -0.076,0.911 -0.173,-0.179 -0.026,-0.682 -0.075,-0.987 z m 0.152,1.822 c -0.132,-0.069 -0.168,-0.237 -0.152,-0.456 0.132,0.071 0.167,0.238 0.152,0.456 z m 0,1.367 c -0.058,0.139 -0.082,-0.045 -0.076,-0.152 0.058,-0.139 0.081,0.045 0.076,0.152 z m -0.152,0.228 c 0.175,-0.024 0.084,0.219 0.228,0.227 -0.009,0.193 -0.283,0.179 -0.38,0.077 0.039,-0.112 0.113,-0.193 0.152,-0.304 z m -2.354,-1.216 c 0.006,-0.108 0.013,-0.214 -0.076,-0.228 -0.073,-0.733 0.13,-1.415 0,-1.973 0.25,-0.155 0.769,-0.042 1.139,-0.077 l 0,1.139 c -0.088,0.064 -0.203,0.101 -0.379,0.077 -0.054,0.28 0.324,0.131 0.379,0.304 0.008,0.853 -0.056,1.777 0.152,2.429 -0.565,-0.059 -0.906,0.107 -1.442,0.076 0.097,-0.612 -0.019,-1.435 0.531,-1.594 -0.012,-0.141 -0.257,-0.047 -0.304,-0.153 z m -0.531,0 c -0.204,0.021 -0.217,-0.534 -0.077,-0.607 0.328,0.006 0.249,0.501 0.077,0.607 z m -0.152,0.988 c 0.077,-0.312 0.034,-0.304 0.075,-0.683 0.228,0.013 0.26,0.77 -0.075,0.683 z m 0.228,-2.05 c -0.263,0.054 -0.273,-0.266 -0.153,-0.38 0.263,-0.053 0.272,0.267 0.153,0.38 z m 0,-1.139 c 0.033,0.159 -0.052,0.201 -0.076,0.304 -0.176,0.023 -0.084,-0.219 -0.229,-0.229 0.025,-0.102 0.191,-0.062 0.305,-0.075 z m -0.228,3.721 c 0.148,-0.031 0.11,0.345 -0.076,0.227 0.04,-0.062 0.079,-0.124 0.076,-0.227 z m -0.684,-3.721 c 0.029,0.259 -0.438,0.32 -0.379,0 l 0.379,0 z m -0.987,0.076 c -0.034,0.219 -0.326,0.179 -0.379,0.379 -0.214,-0.17 0.084,-0.468 0.379,-0.379 z m -0.455,0.759 c 0.226,-0.205 0.451,-0.41 0.684,-0.607 -0.021,-0.123 0.071,-0.131 0.076,-0.228 l 0.229,0 c 0.102,0.381 -0.261,0.296 -0.305,0.531 0.021,0.122 -0.072,0.131 -0.075,0.227 0.02,0.335 0.121,0.588 0.075,0.988 -0.27,0.008 -0.276,0.28 -0.607,0.227 0.022,-0.428 -0.135,-0.674 -0.077,-1.138 z m 0.076,3.265 0,-1.594 c 0.195,-0.185 0.396,-0.364 0.607,-0.532 0.295,0.489 0.179,1.392 0.455,1.897 -0.275,0.157 -0.75,0.111 -1.062,0.229 z M 72.68,69.968 c -0.109,0.954 -0.158,1.968 -0.379,2.809 -2.89,0.123 -6.02,0.005 -8.883,0.153 -0.199,0.045 -0.273,-0.031 -0.229,-0.229 -0.253,0 -0.258,0.247 -0.531,0.229 0.201,-0.336 0.438,-0.898 0.151,-1.291 -0.797,0.013 -0.797,0.821 -1.138,1.291 -0.686,-0.053 -1.137,0.127 -1.823,0.075 0.18,-0.705 0.75,-1.021 0.911,-1.745 -0.395,-0.55 -0.989,0.138 -1.214,0.455 -0.204,0.48 -0.557,0.81 -0.76,1.29 l -0.985,0 c 0.238,-0.469 0.489,-0.926 0.759,-1.366 0.171,-0.512 0.625,-0.741 0.683,-1.367 -0.157,-0.28 -0.42,-0.029 -0.683,0 -0.123,0.182 -0.272,0.335 -0.38,0.531 -0.232,0.376 -0.501,0.714 -0.684,1.14 -0.181,0.208 -0.335,0.003 -0.53,0.227 -0.389,0.271 -0.581,0.736 -0.988,0.987 -0.174,-0.06 0.039,-0.356 0.153,-0.38 0.045,-0.181 -0.096,-0.55 0.075,-0.607 0.063,-0.366 0.212,-0.647 0.379,-0.91 0.119,-0.742 0.521,-1.199 0.684,-1.898 -0.559,0.099 -0.674,0.643 -0.988,0.987 -0.212,0.445 -0.542,0.772 -0.683,1.291 -0.174,-0.131 -0.028,-0.58 -0.076,-0.836 0.122,-0.586 0.298,-1.119 0.38,-1.746 0.133,-0.22 0.173,-0.535 0.228,-0.834 0.168,-0.209 0.046,-0.61 -0.077,-0.761 -0.226,0.027 -0.374,0.133 -0.455,0.304 -0.192,-0.032 -0.193,0.506 -0.304,0.304 -0.045,-2.587 -0.451,-4.812 -0.456,-7.438 0.026,-0.331 -0.183,-0.424 -0.228,-0.685 1.629,0.028 3.121,0.091 4.783,0.229 -0.089,0.139 -0.199,0.257 -0.304,0.379 -0.144,0.07 -0.226,0.173 -0.378,0.304 -0.604,1.653 -0.975,3.984 -0.607,6.15 0.229,0.58 0.589,1.029 0.986,1.441 0.907,0.485 1.635,1.149 2.506,1.671 1.701,0.361 3.84,0.369 5.541,0 0.236,-0.12 0.484,-0.226 0.685,-0.38 1.364,-1.242 2.753,-2.459 2.961,-4.859 l 0,-1.367 c -0.197,-1.598 -0.688,-2.905 -1.747,-3.644 0.331,-0.22 1.099,0.043 1.67,0.076 0.223,0.013 0.447,0.014 0.684,0 0.408,-0.024 0.928,-0.055 1.443,0 0.144,0.187 0.113,0.544 0.228,0.76 -0.062,1.684 -0.192,3.3 -0.152,5.087 0.103,0.454 0.127,0.986 0.229,1.441 -0.091,0.973 -0.237,1.89 -0.457,2.732 z m 0.379,-11.16 c -0.639,-0.12 -1.232,-0.284 -1.897,-0.379 0.072,-0.333 0.799,-0.01 0.987,-0.228 0.385,-0.223 0.295,-0.92 0.304,-1.51 0.032,-0.348 0.114,-0.644 0.076,-1.063 -0.401,-0.951 -1.783,-0.421 -2.886,-0.455 -0.225,0.718 -0.47,1.8 -0.304,2.657 0.169,0.49 1.024,0.292 1.519,0.456 -0.14,0.332 -0.688,0.057 -0.987,0.076 -0.296,-0.083 -0.707,-0.052 -0.986,-0.151 -2.285,0.078 -4.284,0.004 -6.529,0.151 0.117,-1.248 0.063,-2.465 -0.076,-3.645 l 3.112,0 c -0.344,0.364 -0.912,0.507 -1.29,0.835 -0.44,0.244 -0.861,0.505 -1.139,0.911 0.249,0.134 0.535,-0.245 0.759,-0.379 0.355,-0.074 0.479,-0.381 0.835,-0.455 0.423,-0.438 1.096,-0.625 1.67,-0.912 0.378,-0.022 0.697,0.013 0.987,0.077 1.283,0.007 2.456,0.126 3.796,0.076 0.614,0.145 1.45,0.069 1.974,0.304 0.107,0.298 0.231,0.579 0.305,0.911 0.008,0.986 -0.149,1.816 -0.23,2.723 z m -5.845,-3.72 c 0.11,-0.047 -0.009,-0.092 0,0 l 0,0 z m 0,0 c -0.529,0.154 -1.019,0.348 -1.367,0.682 0.484,-0.198 1.059,-0.306 1.367,-0.682 z m 1.062,0.607 c 0.111,-0.047 -0.007,-0.091 0,0 l 0,0 z m -1.746,0.911 c 0.727,-0.158 1.181,-0.591 1.746,-0.911 -0.437,0.019 -0.592,0.32 -0.987,0.379 -0.215,0.217 -0.6,0.26 -0.759,0.532 z m -0.683,-0.835 c -0.111,0.047 0.007,0.092 0,0 l 0,0 z m -0.683,0.607 c 0.11,-0.046 -0.008,-0.092 0,0 l 0,0 z m -0.075,0.076 c 0.063,0.014 0.07,-0.03 0.075,-0.076 -0.064,-0.014 -0.072,0.03 -0.075,0.076 z m -0.077,0.076 c 0.064,0.014 0.072,-0.03 0.077,-0.076 -0.067,-0.013 -0.072,0.029 -0.077,0.076 z m -0.834,0.608 c 0.346,-0.134 0.613,-0.348 0.834,-0.607 -0.348,0.133 -0.615,0.347 -0.834,0.607 z m 2.276,0.987 c 0.533,-0.049 0.749,-0.416 1.215,-0.531 0.284,-0.298 0.784,-0.381 0.987,-0.76 -0.56,0.023 -0.766,0.399 -1.216,0.531 -0.284,0.297 -0.751,0.413 -0.986,0.76 z m -2.276,-0.987 c -0.317,-0.074 -0.016,0.227 0,0 l 0,0 z m -0.533,0.379 c 0.021,0.021 0.115,-0.037 0.076,-0.077 -0.021,-0.02 -0.116,0.038 -0.076,0.077 z m 2.809,0.608 c -0.11,0.047 0.007,0.091 0,0 l 0,0 z m -1.14,1.821 c -0.223,-0.231 -0.676,-0.233 -0.986,-0.379 -0.697,-0.038 -1.223,0.093 -1.746,0.229 -0.304,0.151 -0.607,0.304 -0.91,0.454 -0.266,0.166 -0.444,0.417 -0.76,0.532 -0.205,0.225 -0.352,0.51 -0.684,0.607 -0.004,0.223 -0.173,0.281 -0.304,0.379 -0.089,0.115 -0.094,0.312 -0.227,0.381 -0.007,0.12 0.036,0.29 -0.076,0.303 0.108,1.512 0.291,2.948 0.683,4.177 0.287,0.623 0.975,0.846 1.442,1.29 0.589,0.297 1.328,0.444 2.126,0.531 0.277,-0.052 0.553,-0.105 0.911,-0.076 1.209,-0.209 2.098,-0.736 2.81,-1.441 0.1,-0.281 0.252,-0.508 0.455,-0.684 -0.254,-0.671 0.293,-1.098 0.455,-1.59 0.002,-1.344 -0.201,-2.48 -0.607,-3.415 -0.256,-0.579 -0.92,-0.751 -1.366,-1.139 -0.059,-0.018 -0.15,-0.003 -0.151,-0.077 -0.269,-0.136 -0.733,-0.239 -1.065,-0.082 z m -3.415,4.327 c -0.113,-0.063 -0.109,-0.244 -0.152,-0.379 0.256,-0.078 0.118,0.237 0.152,0.379 z m 0.076,0.305 c 0.041,-0.117 0.079,-0.006 0.076,0.075 -0.04,0.118 -0.079,0.005 -0.076,-0.075 z m 0.456,-2.051 c 0.015,-0.086 0.075,-0.042 0.075,0 -0.014,0.087 -0.075,0.043 -0.075,0 z m 1.67,-2.125 c -0.203,0.258 0.041,0.576 0.077,0.836 -0.305,-0.039 -0.574,-0.887 -0.077,-0.836 z m 0.379,3.948 c -0.04,-0.038 0.055,-0.097 0.076,-0.076 0.04,0.038 -0.054,0.097 -0.076,0.076 z m 0.759,2.884 c 0.034,-0.109 0.066,0.008 0.152,0 -0.018,0.097 -0.15,0.077 -0.152,0 z m 2.201,-2.581 c -0.233,-0.057 -0.145,0.208 -0.379,0.152 0.069,-0.159 0.118,-0.338 0.229,-0.455 0.134,0.019 0.172,0.13 0.15,0.303 z m -1.137,-3.796 c 0.211,0.119 0.441,0.217 0.606,0.381 0.085,0.219 0.243,0.363 0.38,0.529 0.058,0.778 0.179,1.492 0.151,2.354 -0.257,0.099 -0.438,0.271 -0.683,0.381 -0.78,-0.006 -1.358,-0.212 -1.897,-0.456 -0.171,-0.259 -0.355,-0.505 -0.532,-0.759 l 0,-1.062 c 0.17,-0.185 0.319,-0.391 0.456,-0.607 0.228,-0.127 0.508,-0.201 0.454,-0.607 -0.038,-0.062 -0.078,-0.124 -0.075,-0.229 0.158,0.045 0.245,0.159 0.379,0.229 0.323,0.017 0.41,-0.2 0.761,-0.154 z"
         id="path4421" />
    </g>
  </g>
  <g
     transform="translate(950.19556,108.05294)"
     id="g4433">
    <path
       d="m -244.227,18.283 c -0.286,0.966 -0.245,2.191 0.027,3.639 0.494,2.635 1.687,6.041 2.358,9.67 l 5.062,0 c 0.696,-3.641 1.949,-7.05 2.471,-9.683 0.287,-1.445 0.33,-2.66 0.041,-3.617 -0.275,-0.899 -0.89,-1.618 -2.021,-2.303 l -5.997,0 c -1.075,0.679 -1.674,1.391 -1.941,2.294 z"
       id="path4435" />
    <path
       d="m -232.395,38.278 -13.799,0 c -1.293,0 -2.299,0.976 -2.299,2.229 l 0,2.229 2.299,0 13.799,0 2.299,0 0,-2.229 c 0,-1.253 -1.006,-2.229 -2.299,-2.229 z"
       id="path4437" />
    <path
       d="m -225.262,-17.446 -11.732,0 c 0,-1.244 -1.015,-2.229 -2.3,-2.229 -1.283,0 -2.3,0.985 -2.3,2.229 l -11.737,0 -6.073,25.517 c 0.794,-0.461 1.589,-0.992 2.632,-0.992 1.359,0 2.243,0.818 2.924,1.375 0.682,0.557 1.162,0.849 1.447,0.849 0.292,10e-4 0.769,-0.287 1.451,-0.836 0.681,-0.548 1.564,-1.358 2.915,-1.358 1.349,0 2.237,0.806 2.919,1.354 0.684,0.549 1.161,0.84 1.451,0.84 0.146,0 0.338,-0.073 0.58,-0.214 0.242,-0.141 0.53,-0.353 0.872,-0.626 0.512,-0.411 1.139,-0.967 1.99,-1.218 0.284,-0.085 0.593,-0.136 0.93,-0.136 1.347,0 2.238,0.805 2.92,1.354 0.683,0.548 1.159,0.84 1.451,0.84 0.287,-0.002 0.766,-0.296 1.445,-0.85 0.684,-0.554 1.571,-1.367 2.925,-1.367 1.356,0 2.239,0.817 2.919,1.371 0.342,0.276 0.631,0.489 0.872,0.631 0.24,0.143 0.431,0.214 0.575,0.214 0.288,0 0.762,-0.293 1.442,-0.854 0.68,-0.559 1.567,-1.384 2.929,-1.384 1.044,0 1.839,0.533 2.632,0.997 l -6.079,-25.507 z"
       id="path4439" />
    <path
       d="m -235.881,33.82 -6.864,0 c -0.657,0 -1.15,0.479 -1.15,1.115 0,0.635 0.493,1.113 1.15,1.113 l 6.9,0 c 0.655,0 1.15,-0.479 1.15,-1.113 0,-0.636 -0.495,-1.115 -1.15,-1.115 l -0.036,0 z"
       id="path4441" />
    <path
       d="m -239.295,9.336 c -0.146,0 -0.338,0.074 -0.58,0.213 -0.157,0.094 -0.37,0.261 -0.57,0.41 l 0,3.731 2.299,0 0,-3.731 c -0.505,-0.378 -0.908,-0.623 -1.149,-0.623 z"
       id="path4443" />
  </g>
  <polygon
     transform="translate(584.56222,202.07524)"
     points="0,12.998 0.003,13.001 0,13.005 13.005,26.003 15.833,23.175 7.661,15.002 50,15.002 50,11.002 7.659,11.002 15.833,2.828 13.005,0 "
     id="polygon4458" />
  <path
     style="fill:#333333"
     id="mail"
     d="m 386.72666,276.68392 -24,0 c -2.209,0 -4,1.792 -4,4 l 0,13 c 0,2.209 1.791,4 4,4 l 24,0 c 2.209,0 4,-1.791 4,-4 l 0,-13 c 0,-2.208 -1.791,-4 -4,-4 z m -26,5.25 6.999,5.25 -6.999,5.25 0,-10.5 z m 28,11.75 c 0,1.104 -0.898,2 -2,2 l -24,0 c -1.103,0 -2,-0.896 -2,-2 l 7.832,-5.875 4.368,3.277 c 0.533,0.397 1.166,0.6 1.8,0.6 0.633,0 1.266,-0.201 1.799,-0.6 l 4.369,-3.277 7.832,5.875 0,0 z m 0,-1.25 -7,-5.25 7,-5.25 0,10.5 z m -12.801,-2.148 c -0.35,0.263 -0.763,0.4 -1.199,0.4 -0.436,0 -0.851,-0.139 -1.2,-0.4 l -4.135,-3.102 -0.833,-0.625 -7.832,-5.874 0,-10e-4 c 0,-1.103 0.897,-2 2,-2 l 24,0 c 1.102,0 2,0.897 2,2 l -12.801,9.602 z" />
  <polygon
     transform="translate(581.76615,150.25314)"
     style="fill:#231f20"
     points="1.414,0 0,1.414 8.842,10.256 0,19.098 1.414,20.512 10.256,11.67 19.099,20.512 20.513,19.098 11.671,10.256 20.513,1.414 19.099,0 10.256,8.842 "
     id="polygon4477" />
  <g
     transform="translate(295.56374,284.08161)"
     id="g4499">
    <rect
       style="fill:#231f20"
       y="0"
       x="0"
       width="19.958"
       height="2"
       id="rect4487" />
    <rect
       style="fill:#231f20"
       x="0"
       y="6"
       width="19.958"
       height="2"
       id="rect4489" />
    <rect
       style="fill:#231f20"
       x="0"
       y="12"
       width="19.958"
       height="2"
       id="rect4491" />
  </g>
  <g
     transform="translate(634.17574,152.24033)"
     id="g4505">
    <g
       id="UrwUhy_2_">
      <g
         id="g4508">
        <path
           d="m 17.321,24.333 c -0.371,0 -0.744,0 -1.115,0 C 11.302,23.753 7.709,21.476 5.096,18.561 2.473,15.637 0.402,11.875 0,6.817 0,6.364 0,5.911 0,5.459 0.091,4.538 0.544,3.909 1.067,3.373 1.717,2.707 2.697,1.851 3.589,1.82 c 0.659,-0.022 1.78,0.451 2.232,1.066 0.388,0.53 0.595,1.59 0.775,2.378 0.185,0.797 0.6,1.95 0.485,2.717 -0.176,1.196 -1.764,1.703 -2.231,2.572 1.551,3.721 4.089,6.456 7.472,8.345 0.847,-0.465 1.595,-1.864 2.767,-1.892 0.428,-0.012 0.972,0.209 1.406,0.34 0.477,0.143 0.891,0.326 1.311,0.484 0.705,0.266 1.957,0.621 2.378,1.213 0.433,0.61 0.681,1.608 0.581,2.231 -0.194,1.234 -2.227,2.603 -3.444,3.059 z"
           id="path4510" />
      </g>
    </g>
    <path
       d="m 12.529,1.528 c 5.949,0 10.771,4.822 10.771,10.771 l 1.529,0 C 24.829,5.507 19.323,0 12.529,0 l 0,1.528 z"
       id="path4512" />
    <path
       d="m 12.529,9.327 0,1.552 c 0.785,0 1.421,0.636 1.421,1.42 l 1.553,0 C 15.502,10.657 14.172,9.327 12.529,9.327 Z"
       id="path4514" />
    <path
       d="m 12.529,6.246 c 3.345,0 6.056,2.71 6.056,6.054 l 1.588,0 c 0,-4.22 -3.422,-7.641 -7.644,-7.641 l 0,1.587 z"
       id="path4516" />
  </g>
  <g
     transform="translate(-161.64459,-311.16527)"
     id="g4550">
    <g
       id="g4532">
      <g
         id="g4534">
        <path
           style="fill:#63d1bb"
           d="m 344.255,400.708 c 0,0 -0.92,-7.008 -3.785,-10.078 -3.632,-4.041 -7.674,-4.066 -9.541,-4.297 -13.326,-1.023 -33.303,-1.023 -33.303,-1.023 l -0.051,0 c 0,0 -19.978,0 -33.304,1.023 -1.867,0.23 -5.908,0.256 -9.54,4.297 -2.84,3.096 -3.786,10.078 -3.786,10.078 0,0 -0.896,8.211 -0.896,16.422 l 0,7.699 c 0,8.21 0.947,16.421 0.947,16.421 0,0 0.921,7.009 3.785,10.078 3.632,4.041 8.364,3.913 10.487,4.349 7.622,0.767 32.356,1.022 32.356,1.022 0,0 20.003,-0.025 33.329,-1.048 1.867,-0.23 5.908,-0.256 9.54,-4.298 2.84,-3.069 3.786,-10.078 3.786,-10.078 0,0 0.946,-8.21 0.946,-16.421 l 0,-7.699 c -0.023,-8.236 -0.97,-16.447 -0.97,-16.447 z"
           id="path4536" />
        <path
           style="fill:#ffffff"
           d="m 297.614,459.449 -0.016,0 c -1.015,-0.011 -24.946,-0.266 -32.604,-1.037 l -0.14,-0.014 -0.137,-0.028 c -0.271,-0.056 -0.668,-0.107 -1.126,-0.167 -2.503,-0.328 -7.159,-0.938 -10.839,-5.019 -3.354,-3.616 -4.377,-10.771 -4.483,-11.576 l -0.005,-0.043 c -0.039,-0.342 -0.965,-8.463 -0.965,-16.736 l 0,-7.699 c 0,-8.266 0.875,-16.378 0.912,-16.72 l 0.009,-0.071 c 0.108,-0.802 1.155,-7.928 4.474,-11.557 3.996,-4.439 8.531,-4.899 10.712,-5.121 0.192,-0.02 0.37,-0.037 0.529,-0.058 l 0.126,-0.013 c 13.277,-1.019 33.312,-1.031 33.514,-1.031 l 0.051,0 c 0.201,0 20.236,0.013 33.514,1.031 l 0.126,0.013 c 0.159,0.021 0.337,0.038 0.529,0.058 2.179,0.221 6.71,0.682 10.704,5.112 3.354,3.616 4.377,10.771 4.483,11.577 l 0.005,0.043 c 0.039,0.342 0.965,8.459 0.99,16.753 l 0,7.708 c 0,8.273 -0.926,16.395 -0.965,16.736 l -0.007,0.053 c -0.108,0.805 -1.156,7.953 -4.478,11.562 -3.994,4.435 -8.527,4.896 -10.707,5.117 -0.193,0.02 -0.371,0.037 -0.53,0.057 l -0.126,0.013 c -13.276,1.02 -33.334,1.057 -33.535,1.058 l -0.015,-10e-4 0,0 z m -31.944,-6.497 c 7.477,0.729 31.216,0.989 31.968,0.997 0.657,-0.001 20.135,-0.049 33.047,-1.036 0.178,-0.021 0.371,-0.041 0.58,-0.062 1.836,-0.186 4.608,-0.468 7.186,-3.335 l 0.026,-0.029 c 1.825,-1.974 2.853,-6.928 3.075,-8.552 0.059,-0.514 0.926,-8.358 0.926,-16.08 l 0,-7.699 c -0.023,-7.76 -0.896,-15.627 -0.951,-16.109 -0.32,-2.382 -1.434,-6.789 -3.066,-8.539 l -0.035,-0.038 c -2.577,-2.868 -5.351,-3.149 -7.186,-3.336 -0.209,-0.021 -0.402,-0.041 -0.58,-0.062 -13.066,-0.998 -32.834,-1.011 -33.033,-1.011 l -0.051,0 c -0.198,0 -19.967,0.013 -33.033,1.011 -0.177,0.021 -0.371,0.041 -0.58,0.062 -1.835,0.187 -4.607,0.468 -7.186,3.336 l -0.019,0.021 c -1.828,1.993 -2.855,6.924 -3.082,8.552 -0.062,0.591 -0.875,8.399 -0.875,16.089 l 0,7.699 c 0,7.749 0.871,15.598 0.926,16.083 0.32,2.381 1.433,6.789 3.066,8.539 l 0.035,0.039 c 2.322,2.584 5.303,2.975 7.479,3.259 0.481,0.061 0.939,0.121 1.363,0.201 z"
           id="path4538" />
      </g>
    </g>
    <g
       id="g4540">
      <polygon
         style="fill:#ffffff"
         points="315.48,420.992 285.733,403.138 285.733,438.846 "
         id="polygon4542" />
    </g>
  </g>
  <polygon
     transform="translate(489.06893,150.91811)"
     points="50,12.998 49.996,13.001 50,13.005 36.995,26.003 34.166,23.175 42.339,15.002 0,15.002 0,11.002 42.341,11.002 34.166,2.828 36.995,0 "
     id="polygon4559" />
  <path
     style="fill:#231f20"
     d="m 513.76914,225.17411 -3.415,-3.415 c 0.965,-1.289 1.545,-2.881 1.545,-4.616 0,-4.253 -3.447,-7.699 -7.7,-7.699 -4.253,0 -7.7,3.446 -7.7,7.699 0,4.253 3.446,7.7 7.699,7.7 1.734,0 3.326,-0.58 4.613,-1.546 l 3.417,3.416 c 0.203,0.202 0.418,0.33 0.771,0.33 0.607,0 1.1,-0.492 1.1,-1.1 0,-0.24 -0.061,-0.499 -0.33,-0.769 z m -15.071,-8.031 c 0,-3.038 2.462,-5.5 5.5,-5.5 3.038,0 5.5,2.462 5.5,5.5 0,3.038 -2.462,5.5 -5.5,5.5 -3.038,0 -5.5,-2.461 -5.5,-5.5 z"
     id="path4569" />
  <polygon
     transform="translate(578.61291,88.2368)"
     points="1.414,9.989 0,11.403 9.924,21.328 9.924,21.328 11.338,22.742 11.338,22.742 11.339,22.742 12.753,21.328 12.752,21.328 32.666,1.414 31.252,0 11.338,19.914 "
     id="polygon4579" />
  <path
     style="fill:#231f20"
     d="m 1,116.88978 27.438,15.934 0,-23.346 -27.438,-15.94 0,23.352 z m 51.346,-31.244 0,2.453 c 0,1.817 -3.458,3.29 -7.73,3.29 -4.266,0 -7.727,-1.473 -7.727,-3.29 l 0,-4.059 0.024,0 c 0.26,1.714 3.604,3.073 7.702,3.073 4.272,0 7.729,-1.474 7.729,-3.285 0,-1.819 -3.457,-3.289 -7.729,-3.289 -0.339,0 -0.675,0.01 -1.002,0.03 l -4.975,-2.888 0,3.086 c 0,1.817 -3.454,3.29 -7.723,3.29 -2.683,0 -5.045,-0.583 -6.433,-1.467 -0.196,-0.203 -0.439,-0.401 -0.732,-0.586 -0.363,-0.381 -0.565,-0.797 -0.565,-1.236 l 0,-2.986 -4.807,2.792 c -0.347,-0.017 -0.696,-0.033 -1.054,-0.033 -4.267,0 -7.727,1.469 -7.727,3.289 0,1.811 3.46,3.285 7.727,3.285 4.099,0 7.446,-1.358 7.705,-3.073 l 0.022,0 0,4.059 c 0,1.817 -3.455,3.29 -7.727,3.29 -4.267,0 -7.727,-1.473 -7.727,-3.29 l 0,-2.42 -5.952,3.452 27.531,15.986 27.351,-15.882 -6.181,-3.591 z m -13.644,10.166 c 0,1.817 -3.46,3.287 -7.727,3.287 -4.269,0 -7.729,-1.47 -7.729,-3.287 l 0,-4.059 0.024,0 c 0.26,1.715 3.603,3.076 7.705,3.076 4.101,0 7.443,-1.361 7.705,-3.076 l 0.021,0 0,4.059 10e-4,0 z m -5.145,13.873 0,23.144 27.442,-15.939 0,-23.144 -27.442,15.939 z m -2.641,-29.904 c 4.269,0 7.723,-1.47 7.723,-3.286 0,-1.814 -3.454,-3.287 -7.723,-3.287 -4.27,0 -7.729,1.472 -7.729,3.287 -0.001,1.816 3.459,3.286 7.729,3.286"
     id="path4589" />
  <g
     transform="translate(583.31978,36.48236)"
     id="twitter">
    <g
       id="g4600">
      <path
         style="fill:#231f20"
         d="m 75.706,57.855 c -0.227,-0.366 -0.909,-0.277 -1.407,-0.371 l -1.112,0 c 0.142,-0.353 0.343,-0.646 0.52,-0.963 0.056,-0.438 0.254,-0.734 0.223,-1.26 0.129,-0.167 0.176,-0.417 0.296,-0.593 0.104,-0.144 0.242,-0.477 0.074,-0.667 -0.051,-0.221 -0.295,-0.249 -0.593,-0.222 -0.088,0.036 -0.169,0.079 -0.222,0.148 -0.448,0.433 -0.778,1.014 -1.261,1.408 -0.009,0.008 -0.062,0 -0.074,0 -0.087,0.005 -0.033,0.046 -0.075,0.074 -0.146,0.098 -0.257,0.152 -0.369,0.223 -0.284,0.176 -0.547,0.445 -0.891,0.519 -0.529,-0.211 -1.156,-0.326 -1.852,-0.37 -1.157,0.102 -2.303,0.215 -3.038,0.741 -0.911,0.35 -1.477,1.042 -2.149,1.63 -0.049,0.32 -0.342,0.398 -0.37,0.741 -0.005,0.045 -0.012,0.088 -0.073,0.074 0.043,0.241 -0.051,0.345 -0.074,0.519 -10e-4,0.133 0.199,0.431 0,0.52 -0.822,-0.12 -1.485,-0.63 -2.149,-0.964 -0.718,-0.36 -1.468,-0.604 -2.074,-1.111 -0.716,-0.322 -1.26,-0.816 -1.778,-1.334 -0.208,-0.312 -0.542,-0.496 -0.667,-0.89 -0.379,-0.164 -0.175,-0.912 -0.741,-0.889 -0.315,-0.043 -0.345,0.199 -0.444,0.37 -0.07,0.227 -0.361,0.232 -0.371,0.519 -0.004,0.046 -0.011,0.088 -0.074,0.075 -0.17,1.089 -0.527,1.992 -0.519,3.26 0.129,0.415 0.35,0.738 0.593,1.038 -0.418,0.051 -0.716,0.222 -0.89,0.519 -0.06,1.073 0.378,1.647 0.742,2.297 0.134,0.384 0.352,0.685 0.593,0.963 0.017,0.229 0.206,0.288 0.296,0.445 0.019,0.105 0.123,0.125 0.149,0.223 -0.04,0.105 0.289,0.18 0.073,0.221 -0.413,0.131 -1.016,0.07 -1.259,0.371 -0.109,0.279 -0.109,0.833 0,1.111 0.034,0.237 0.282,0.262 0.296,0.519 0.499,0.417 1.082,0.747 1.631,1.112 0.574,0.166 1.211,0.271 1.852,0.37 -0.102,0.343 -0.338,0.551 -0.593,0.741 -0.78,0.381 -1.849,0.474 -2.742,0.74 -0.555,0.038 -0.956,0.23 -1.556,0.223 -0.333,0.127 -0.854,0.075 -1.112,0.223 -0.122,0.068 -0.102,0.096 -0.222,0.221 -0.134,0.412 0.111,0.74 0.444,0.89 -0.005,0.253 0.219,0.276 0.371,0.371 0.089,0.183 0.254,0.29 0.445,0.37 0.544,0.468 1.268,0.759 1.927,1.112 0.83,0.183 1.648,0.376 2.52,0.519 0.896,0.116 1.901,0.124 2.816,0.222 l 0.963,0 c 0.511,0.132 1.23,0.054 1.853,0.074 0.095,-0.102 0.322,-0.073 0.519,-0.074 0.522,-0.269 1.196,-0.385 1.631,-0.74 0.574,-0.241 0.989,-0.642 1.557,-0.89 0.866,-0.765 1.937,-1.324 2.519,-2.37 0.205,-0.189 0.351,-0.438 0.445,-0.74 0.265,-0.156 0.385,-0.454 0.593,-0.667 0.404,-0.41 0.706,-0.924 1.037,-1.4 0.319,-0.496 0.576,-1.054 0.89,-1.556 -0.01,-0.405 0.306,-0.484 0.296,-0.89 0.193,-0.226 0.177,-0.662 0.371,-0.88 -0.033,-0.255 0.029,-0.415 0.074,-0.594 0.047,-1.281 -0.047,-2.422 -0.297,-3.407 0.588,-0.155 1.181,-0.302 1.631,-0.593 0.52,-0.206 0.993,-0.603 0.808,-1.281 z m -3.408,4.076 c -0.153,0.859 -0.615,1.41 -1.038,2.001 0.059,0.379 -0.104,0.538 -0.073,0.889 -0.158,0.312 -0.287,0.652 -0.371,1.037 -0.203,0.267 -0.332,0.606 -0.519,0.89 -0.366,0.548 -0.777,1.051 -1.186,1.557 -0.378,0.56 -0.912,0.965 -1.334,1.481 -0.42,0.493 -0.942,0.885 -1.407,1.334 -0.474,0.17 -0.89,0.396 -1.26,0.667 -0.232,0.09 -0.463,0.18 -0.667,0.296 -0.177,0.146 -0.499,0.145 -0.668,0.29 -1.086,0.147 -2.3,0.17 -3.555,0.148 -1.031,-0.105 -2.115,-0.159 -3.039,-0.371 -0.922,-0.189 -1.511,-0.712 -2.297,-1.037 0.153,-0.242 0.634,-0.154 0.963,-0.222 0.031,-0.166 0.394,-0.003 0.444,-0.149 0.257,0.06 0.285,-0.109 0.52,-0.07 0.563,-0.201 1.23,-0.302 1.705,-0.593 0.282,-0.138 0.406,-0.434 0.667,-0.593 0.033,-0.189 0.104,-0.341 0.222,-0.444 0.047,-0.275 0.201,-0.441 0.148,-0.815 0.111,-0.21 0.299,-0.343 0.296,-0.667 -0.074,-0.147 -0.128,-0.316 -0.296,-0.371 -0.026,-0.196 -0.377,-0.067 -0.444,-0.222 -0.255,0.032 -0.416,-0.029 -0.593,-0.075 -0.154,-0.043 -0.487,0.092 -0.519,-0.073 -0.842,-0.023 -1.3,-0.43 -1.853,-0.74 0.431,-0.262 1.032,-0.353 1.333,-0.742 0.516,-0.076 1.058,-0.129 1.112,-0.666 0,-0.717 -0.771,-0.661 -1.333,-0.815 -0.773,-0.66 -1.194,-1.672 -1.779,-2.52 0.238,-0.157 0.564,-0.226 0.741,-0.444 0.454,0.058 0.54,-0.251 0.667,-0.52 0.019,-0.488 -0.333,-0.605 -0.593,-0.815 -0.259,-0.21 -0.475,-0.462 -0.667,-0.74 -0.003,-0.818 -0.021,-1.652 0.074,-2.372 0.063,-0.014 0.07,0.029 0.074,0.074 0.227,0.441 0.559,0.775 0.815,1.186 0.532,0.357 0.925,0.853 1.556,1.112 0.452,0.413 1.108,0.621 1.557,1.038 0.601,0.263 1.158,0.57 1.704,0.889 0.669,0.194 1.056,0.673 2.001,0.593 0.198,-0.098 0.394,-0.199 0.593,-0.297 0.258,-0.456 -0.059,-1.079 0.147,-1.63 0.255,-0.659 0.797,-1.031 1.26,-1.481 0.29,-0.155 0.555,-0.335 0.815,-0.519 0.347,-0.098 0.675,-0.216 0.964,-0.37 0.376,-0.019 0.713,-0.077 1.037,-0.148 l 1.26,0 c 0.244,0.052 0.475,0.119 0.74,0.148 0.209,0.137 0.38,0.313 0.666,0.371 0.789,0.693 1.271,1.696 1.409,3.039 -0.122,0.484 0.053,0.873 0.001,1.481 z m 0.296,-5.632 c -0.129,0.34 -0.23,0.707 -0.593,0.815 -0.017,-0.105 -0.122,-0.125 -0.147,-0.222 -0.012,-0.209 0.209,-0.186 0.296,-0.296 0.162,-0.085 0.245,-0.248 0.444,-0.297 -0.007,-0.09 0.108,-0.046 0,0 z m -5.484,3.038 c 0.163,0.135 0.284,0.31 0.519,0.371 0.101,0.221 0.314,0.327 0.594,0.37 0.047,-0.15 0.346,-0.049 0.37,-0.222 0.174,-0.023 0.166,-0.229 0.296,-0.297 -0.018,-0.55 -0.129,-1.006 -0.37,-1.333 -0.758,-0.423 -1.676,0.039 -1.409,1.111 z"
         id="path4602" />
    </g>
  </g>
  <g
     transform="translate(499.77417,279.26188)"
     id="g4614">
    <path
       d="m 26,-177 6,-4 0,16 -6,-4 0,-8 z m -2,0 0,8 c 0,2.209 -1.791,4 -4,4 l -16,0 c -2.209,0 -4,-1.791 -4,-4 l 0,-8 c 0,-2.209 1.791,-4 4,-4 l 10,0 c 0,-1.105 0.895,-2 2,-2 l 0,-2 -11,0 c -0.553,0 -1,-0.447 -1,-1 0,-0.553 0.447,-1 1,-1 l 12,0 c 0.553,0 1,0.447 1,1 l 0,3 c 1.105,0 2,0.895 2,2 2.209,0 4,1.791 4,4 z m -12,0 -8,0 0,8 8,0 0,-8 z m 8,1 c 0,-0.553 -0.447,-1 -1,-1 l -4,0 c -0.553,0 -1,0.447 -1,1 0,0.553 0.447,1 1,1 l 4,0 c 0.553,0 1,-0.447 1,-1 z"
       id="path4616" />
  </g>
</svg>
